<svg width="20" height="20" viewBox="0 0 20 20" fill="none" xmlns="http://www.w3.org/2000/svg">
<rect width="20" height="20" rx="10" fill="#ED301C"/>
<path d="M5.92898 15.5795C5.68371 15.5795 5.47325 15.4917 5.29759 15.3161C5.12192 15.1404 5.03409 14.9299 5.03409 14.6847C5.03409 14.4394 5.12192 14.2289 5.29759 14.0533C5.47325 13.8776 5.68371 13.7898 5.92898 13.7898C6.17424 13.7898 6.38471 13.8776 6.56037 14.0533C6.73603 14.2289 6.82386 14.4394 6.82386 14.6847C6.82386 14.8471 6.78243 14.9962 6.69957 15.1321C6.62003 15.268 6.51231 15.3774 6.37642 15.4602C6.24384 15.5398 6.0947 15.5795 5.92898 15.5795ZM9.78445 15.5795C9.53918 15.5795 9.32872 15.4917 9.15305 15.3161C8.97739 15.1404 8.88956 14.9299 8.88956 14.6847C8.88956 14.4394 8.97739 14.2289 9.15305 14.0533C9.32872 13.8776 9.53918 13.7898 9.78445 13.7898C10.0297 13.7898 10.2402 13.8776 10.4158 14.0533C10.5915 14.2289 10.6793 14.4394 10.6793 14.6847C10.6793 14.8471 10.6379 14.9962 10.555 15.1321C10.4755 15.268 10.3678 15.3774 10.2319 15.4602C10.0993 15.5398 9.95017 15.5795 9.78445 15.5795ZM13.6399 15.5795C13.3946 15.5795 13.1842 15.4917 13.0085 15.3161C12.8329 15.1404 12.745 14.9299 12.745 14.6847C12.745 14.4394 12.8329 14.2289 13.0085 14.0533C13.1842 13.8776 13.3946 13.7898 13.6399 13.7898C13.8852 13.7898 14.0956 13.8776 14.2713 14.0533C14.447 14.2289 14.5348 14.4394 14.5348 14.6847C14.5348 14.8471 14.4934 14.9962 14.4105 15.1321C14.331 15.268 14.2232 15.3774 14.0874 15.4602C13.9548 15.5398 13.8056 15.5795 13.6399 15.5795Z" fill="white"/>
</svg>
