<svg width="0" height="0" class="hidden">
  <symbol fill="none" xmlns="http://www.w3.org/2000/svg" viewBox="0 0 25 24" id="Name=USA">
    <path d="M24.0544 4H0V20H24.0544V4Z" fill="#B31942"></path>
    <path d="M0 5.84625H24.0544H0ZM24.0544 8.30779H0H24.0544ZM0 10.7693H24.0544H0ZM24.0544 13.2309H0H24.0544ZM0 15.6924H24.0544H0ZM24.0544 18.1539H0H24.0544Z" fill="#000008"></path>
    <path d="M0 5.84625H24.0544M24.0544 8.30779H0M0 10.7693H24.0544M24.0544 13.2309H0M0 15.6924H24.0544M24.0544 18.1539H0" stroke="white" stroke-width="1.23077"></path>
    <path d="M12.16 4H0V12.6154H12.16V4Z" fill="#0A3161"></path>
    <path d="M1.01313 4.36938L1.30251 5.25998L0.544922 4.70956H1.48135L0.723763 5.25998L1.01313 4.36938Z" fill="white"></path>
    <path d="M1.01313 6.09259L1.30251 6.98318L0.544922 6.43277H1.48135L0.723763 6.98318L1.01313 6.09259Z" fill="white"></path>
    <path d="M1.01313 7.8158L1.30251 8.70639L0.544922 8.15597H1.48135L0.723763 8.70639L1.01313 7.8158Z" fill="white"></path>
    <path d="M1.01313 9.5387L1.30251 10.4293L0.544922 9.87887H1.48135L0.723763 10.4293L1.01313 9.5387Z" fill="white"></path>
    <path d="M1.01313 11.2619L1.30251 12.1525L0.544922 11.6021H1.48135L0.723763 12.1525L1.01313 11.2619Z" fill="white"></path>
    <path d="M2.02681 5.23096L2.31618 6.12155L1.55859 5.57113H2.49502L1.73744 6.12155L2.02681 5.23096Z" fill="white"></path>
    <path d="M2.02681 6.95392L2.31618 7.84451L1.55859 7.29409H2.49502L1.73744 7.84451L2.02681 6.95392Z" fill="white"></path>
    <path d="M2.02681 8.67688L2.31618 9.56747L1.55859 9.01706H2.49502L1.73744 9.56747L2.02681 8.67688Z" fill="white"></path>
    <path d="M2.02681 10.4001L2.31618 11.2907L1.55859 10.7403H2.49502L1.73744 11.2907L2.02681 10.4001Z" fill="white"></path>
    <path d="M3.03999 4.36938L3.32936 5.25998L2.57178 4.70956H3.5082L2.75062 5.25998L3.03999 4.36938Z" fill="white"></path>
    <path d="M3.03999 6.09259L3.32936 6.98318L2.57178 6.43277H3.5082L2.75062 6.98318L3.03999 6.09259Z" fill="white"></path>
    <path d="M3.03999 7.8158L3.32936 8.70639L2.57178 8.15597H3.5082L2.75062 8.70639L3.03999 7.8158Z" fill="white"></path>
    <path d="M3.03999 9.5387L3.32936 10.4293L2.57178 9.87887H3.5082L2.75062 10.4293L3.03999 9.5387Z" fill="white"></path>
    <path d="M3.03999 11.2619L3.32936 12.1525L2.57178 11.6021H3.5082L2.75062 12.1525L3.03999 11.2619Z" fill="white"></path>
    <path d="M4.05342 5.23096L4.34279 6.12155L3.58521 5.57113H4.52163L3.76405 6.12155L4.05342 5.23096Z" fill="white"></path>
    <path d="M4.05366 6.95392L4.34303 7.84451L3.58545 7.29409H4.52187L3.76429 7.84451L4.05366 6.95392Z" fill="white"></path>
    <path d="M4.05366 8.67719L4.34303 9.56778L3.58545 9.01736H4.52187L3.76429 9.56778L4.05366 8.67719Z" fill="white"></path>
    <path d="M4.05366 10.4001L4.34303 11.2907L3.58545 10.7403H4.52187L3.76429 11.2907L4.05366 10.4001Z" fill="white"></path>
    <path d="M5.0666 4.36926L5.35597 5.25986L4.59839 4.70944H5.53481L4.77723 5.25986L5.0666 4.36926Z" fill="white"></path>
    <path d="M5.06685 6.09247L5.35622 6.98306L4.59863 6.43264H5.53506L4.77747 6.98306L5.06685 6.09247Z" fill="white"></path>
    <path d="M5.06685 7.81567L5.35622 8.70627L4.59863 8.15585H5.53506L4.77747 8.70627L5.06685 7.81567Z" fill="white"></path>
    <path d="M5.06685 9.53857L5.35622 10.4292L4.59863 9.87875H5.53506L4.77747 10.4292L5.06685 9.53857Z" fill="white"></path>
    <path d="M5.06685 11.2618L5.35622 12.1524L4.59863 11.602H5.53506L4.77747 12.1524L5.06685 11.2618Z" fill="white"></path>
    <path d="M6.08027 5.23083L6.36964 6.12143L5.61206 5.57101H6.54849L5.7909 6.12143L6.08027 5.23083Z" fill="white"></path>
    <path d="M6.08027 6.9538L6.36964 7.84439L5.61206 7.29397H6.54849L5.7909 7.84439L6.08027 6.9538Z" fill="white"></path>
    <path d="M6.08027 8.67706L6.36964 9.56766L5.61206 9.01724H6.54849L5.7909 9.56766L6.08027 8.67706Z" fill="white"></path>
    <path d="M6.08027 10.4L6.36964 11.2906L5.61206 10.7401H6.54849L5.7909 11.2906L6.08027 10.4Z" fill="white"></path>
    <path d="M7.09395 4.36926L7.38332 5.25986L6.62573 4.70944H7.56216L6.80457 5.25986L7.09395 4.36926Z" fill="white"></path>
    <path d="M7.09419 6.09198L7.38356 6.98257L6.62598 6.43216H7.5624L6.80482 6.98257L7.09419 6.09198Z" fill="white"></path>
    <path d="M7.09419 7.81519L7.38356 8.70578L6.62598 8.15536H7.5624L6.80482 8.70578L7.09419 7.81519Z" fill="white"></path>
    <path d="M7.09419 9.53809L7.38356 10.4287L6.62598 9.87826H7.5624L6.80482 10.4287L7.09419 9.53809Z" fill="white"></path>
    <path d="M7.09395 11.2615L7.38332 12.1521L6.62573 11.6017H7.56216L6.80457 12.1521L7.09395 11.2615Z" fill="white"></path>
    <path d="M8.10713 5.23053L8.3965 6.12112L7.63892 5.57071H8.57534L7.81776 6.12112L8.10713 5.23053Z" fill="white"></path>
    <path d="M8.10737 6.95349L8.39674 7.84408L7.63916 7.29367H8.57559L7.818 7.84408L8.10737 6.95349Z" fill="white"></path>
    <path d="M8.10737 8.67676L8.39674 9.56735L7.63916 9.01693H8.57559L7.818 9.56735L8.10737 8.67676Z" fill="white"></path>
    <path d="M8.10737 10.3997L8.39674 11.2903L7.63916 10.7398H8.57559L7.818 11.2903L8.10737 10.3997Z" fill="white"></path>
    <path d="M9.11982 4.36945L9.4092 5.26004L8.65161 4.70962H9.58804L8.83045 5.26004L9.11982 4.36945Z" fill="white"></path>
    <path d="M9.12007 6.09216L9.40944 6.98276L8.65186 6.43234H9.58828L8.8307 6.98276L9.12007 6.09216Z" fill="white"></path>
    <path d="M9.12007 7.81537L9.40944 8.70596L8.65186 8.15554H9.58828L8.8307 8.70596L9.12007 7.81537Z" fill="white"></path>
    <path d="M9.12007 9.53827L9.40944 10.4289L8.65186 9.87845H9.58828L8.8307 10.4289L9.12007 9.53827Z" fill="white"></path>
    <path d="M9.12007 11.2615L9.40944 12.1521L8.65186 11.6017H9.58828L8.8307 12.1521L9.12007 11.2615Z" fill="white"></path>
    <path d="M10.1335 5.23053L10.4229 6.12112L9.66528 5.57071H10.6017L9.84412 6.12112L10.1335 5.23053Z" fill="white"></path>
    <path d="M10.1335 6.95349L10.4229 7.84408L9.66528 7.29367H10.6017L9.84412 7.84408L10.1335 6.95349Z" fill="white"></path>
    <path d="M10.1335 8.67645L10.4229 9.56705L9.66528 9.01663H10.6017L9.84412 9.56705L10.1335 8.67645Z" fill="white"></path>
    <path d="M10.1335 10.3997L10.4229 11.2903L9.66528 10.7398H10.6017L9.84412 11.2903L10.1335 10.3997Z" fill="white"></path>
    <path d="M11.1469 4.36932L11.4363 5.25992L10.6787 4.7095H11.6151L10.8576 5.25992L11.1469 4.36932Z" fill="white"></path>
    <path d="M11.1472 6.09204L11.4365 6.98263L10.679 6.43222H11.6154L10.8578 6.98263L11.1472 6.09204Z" fill="white"></path>
    <path d="M11.1472 7.81525L11.4365 8.70584L10.679 8.15542H11.6154L10.8578 8.70584L11.1472 7.81525Z" fill="white"></path>
    <path d="M11.1472 9.53815L11.4365 10.4287L10.679 9.87832H11.6154L10.8578 10.4287L11.1472 9.53815Z" fill="white"></path>
    <path d="M11.1469 11.2615L11.4363 12.1521L10.6787 11.6017H11.6151L10.8576 12.1521L11.1469 11.2615Z" fill="white"></path>
  </symbol>
  <symbol fill="none" xmlns="http://www.w3.org/2000/svg" viewBox="0 0 48 48" id="Name=Google">
    <g clip-path="url(#clip0_2398_23133)">
      <path d="M23.9999 10C27.2334 10 30.2024 11.1071 32.5725 12.9481L39.8468 6.00818C35.6174 2.27991 30.0812 0 23.9999 0C14.7847 0 6.79321 5.19983 2.77148 12.8197L10.8604 19.2056C12.8198 13.8387 17.9548 10 23.9999 10Z" fill="#F44336"></path>
      <path d="M47.7921 27.0037C47.9171 26.0204 48 25.0173 48 24C48 22.2843 47.8126 20.6136 47.4705 19H24V29H36.9724C35.923 31.7275 34.0544 34.0355 31.676 35.6389L39.7949 42.0486C44.0988 38.2709 47.0439 32.9807 47.7921 27.0037Z" fill="#2196F3"></path>
      <path d="M10 24C10 22.3131 10.3137 20.7032 10.8605 19.2056L2.77161 12.8197C1.00867 16.16 0 19.9603 0 24C0 27.9945 0.990112 31.7527 2.71643 35.0659L10.8156 28.6719C10.2969 27.2089 10 25.6409 10 24Z" fill="#FFC107"></path>
      <path d="M23.9999 38C17.9088 38 12.7407 34.103 10.8154 28.6719L2.71631 35.0659C6.71838 42.7469 14.7395 48 23.9999 48C30.0554 48 35.5774 45.7504 39.7948 42.0486L31.6759 35.6389C29.4823 37.1178 26.8567 38 23.9999 38Z" fill="#00B060"></path>
      <path opacity="0.1" d="M24.0001 47.5C16.9368 47.5 10.5856 44.5857 6.09521 39.9426C10.4908 44.8756 16.873 48 24.0001 48C31.0613 48 37.3906 44.9373 41.7764 40.0815C37.2993 44.6493 30.9963 47.5 24.0001 47.5Z" fill="black"></path>
      <path opacity="0.1" d="M24 28.5V29H36.9724L37.175 28.5H24Z" fill="black"></path>
      <path d="M47.9889 24.2941C47.9905 24.1956 48 24.0988 48 24C48 23.972 47.9956 23.9451 47.9955 23.9171C47.9941 24.0431 47.9878 24.1676 47.9889 24.2941Z" fill="#E6E6E6"></path>
      <path opacity="0.2" d="M24 19V19.5H47.5711C47.5396 19.335 47.5052 19.1638 47.4705 19H24Z" fill="white"></path>
      <path d="M47.4705 19H24V29H36.9724C34.9551 34.2432 29.9543 38 24 38C16.2681 38 10 31.7319 10 24C10 16.2679 16.2681 10 24 10C26.8037 10 29.3878 10.8613 31.577 12.2814C31.9121 12.4991 32.2578 12.7036 32.5726 12.9481L39.8469 6.00818L39.6829 5.88196C35.4739 2.23413 30.0071 0 24 0C10.7451 0 0 10.7451 0 24C0 37.2548 10.7451 48 24 48C36.2354 48 46.3109 38.8375 47.7921 27.0037C47.9171 26.0204 48 25.0173 48 24C48 22.2843 47.8126 20.6136 47.4705 19Z" fill="url(#paint0_linear_2398_23133)"></path>
      <path opacity="0.1" d="M31.577 11.7814C29.3878 10.3613 26.8037 9.5 24 9.5C16.2681 9.5 10 15.7679 10 23.5C10 23.5844 10.0011 23.6503 10.0026 23.7344C10.1375 16.119 16.3524 10 24 10C26.8037 10 29.3878 10.8613 31.577 12.2814C31.9121 12.4991 32.2578 12.7036 32.5726 12.9481L39.8469 6.00818L32.5726 12.4481C32.2578 12.2036 31.9121 11.9991 31.577 11.7814Z" fill="black"></path>
      <path opacity="0.2" d="M24 0.5C29.9501 0.5 35.3658 2.69678 39.5586 6.2832L39.8469 6.00818L39.6269 5.81655C35.4179 2.16872 30.0071 0 24 0C10.7451 0 0 10.7451 0 24C0 24.0844 0.0117188 24.1658 0.0125732 24.25C0.148071 11.1117 10.8295 0.5 24 0.5Z" fill="white"></path>
    </g>
    <defs>
      <linearGradient id="paint0_linear_2398_23133" x1="0" y1="24" x2="48" y2="24" gradientUnits="userSpaceOnUse">
        <stop stop-color="white" stop-opacity="0.2"></stop>
        <stop offset="1" stop-color="white" stop-opacity="0"></stop>
      </linearGradient>
      <clipPath id="clip0_2398_23133">
        <rect width="48" height="48" fill="white"></rect>
      </clipPath>
    </defs>
  </symbol>
  <symbol fill="none" xmlns="http://www.w3.org/2000/svg" viewBox="0 0 48 48" id="Name=Facebook">
    <g clip-path="url(#clip0_2398_23134)">
      <path fill-rule="evenodd" clip-rule="evenodd" d="M24.0216 48C37.2009 48 48 37.2009 48 24.0216C48 10.7985 37.2009 0 24.0216 0C10.7985 0 0 10.7985 0 24.0216C0 37.2009 10.7985 48 24.0216 48Z" fill="#3A5BA2"></path>
      <path fill-rule="evenodd" clip-rule="evenodd" d="M21.0022 15.008C21.0022 11.6919 23.6811 9.01306 26.9964 9.01306H31.5031V15.008H28.4845C27.6775 15.008 26.9964 15.6883 26.9964 16.4961V19.5141H31.5031V25.5083H26.9964V39.0289H21.0022V25.5083H16.4961V19.5141H21.0022V15.008Z" fill="white"></path>
    </g>
    <defs>
      <clipPath id="clip0_2398_23134">
        <rect width="48" height="48" fill="white"></rect>
      </clipPath>
    </defs>
  </symbol>
  <symbol fill="none" xmlns="http://www.w3.org/2000/svg" viewBox="0 0 24 24" id="Name=UK">
    <mask id="mask0_2327_3077" maskUnits="userSpaceOnUse" x="0" y="4" width="24" height="16">
      <path d="M0.5 4.31592V19.6318H23.5V4.31592H0.5Z" fill="white"></path>
    </mask>
    <g mask="url(#mask0_2327_3077)">
      <path d="M0.5 4.31592V19.6318H23.5V4.31592H0.5Z" fill="#012169"></path>
      <path d="M0.5 4.31592L23.5 19.6318L0.5 4.31592ZM23.5 4.31592L0.5 19.6318L23.5 4.31592Z" fill="#000008"></path>
      <path d="M0.5 4.31592L23.5 19.6318M23.5 4.31592L0.5 19.6318" stroke="white" stroke-width="2.35"></path>
      <mask id="mask1_2327_3077" maskUnits="userSpaceOnUse" x="0" y="4" width="24" height="16">
        <path d="M12 11.9739H23.5V19.6318L12 11.9739ZM12 11.9739V19.6318H0.5L12 11.9739ZM12 11.9739H0.5V4.31592L12 11.9739ZM12 11.9739V4.31592H23.5L12 11.9739Z" fill="white"></path>
      </mask>
      <g mask="url(#mask1_2327_3077)">
        <path d="M0.5 4.31592L23.5 19.6318L0.5 4.31592ZM23.5 4.31592L0.5 19.6318L23.5 4.31592Z" fill="#000008"></path>
        <path d="M0.5 4.31592L23.5 19.6318M23.5 4.31592L0.5 19.6318" stroke="#C8102E" stroke-width="1.56667"></path>
      </g>
      <path d="M12 4.31592V19.6318V4.31592ZM0.5 11.9739H23.5H0.5Z" fill="#000008"></path>
      <path d="M12 4.31592V19.6318M0.5 11.9739H23.5" stroke="white" stroke-width="3.91667"></path>
      <path d="M12 4.31592V19.6318V4.31592ZM0.5 11.9739H23.5H0.5Z" fill="#000008"></path>
      <path d="M12 4.31592V19.6318M0.5 11.9739H23.5" stroke="#C8102E" stroke-width="2.35"></path>
    </g>
  </symbol>
  <symbol fill="none" xmlns="http://www.w3.org/2000/svg" viewBox="0 0 24 24" id="Name=UKR">
    <circle cx="12" cy="12" r="12" fill="#2498F0"></circle>
    <path d="M24 12.0003C24 18.6277 18.6274 24.0003 12 24.0003C5.37258 24.0003 0 18.6277 0 12.0003C0 5.37289 5.37258 15 12 15C21 15 24 5.37289 24 12.0003Z" fill="#FEC62E"></path>
  </symbol>
</svg>