<svg width="0" height="0" class="hidden">
  <symbol fill="none" xmlns="http://www.w3.org/2000/svg" viewBox="0 0 24 24" id="Name=Star">
    <path d="M8.24301 7.33992L1.86301 8.26492L1.75001 8.28792C1.57895 8.33333 1.423 8.42333 1.2981 8.54872C1.1732 8.67412 1.08381 8.83041 1.03907 9.00165C0.994331 9.17289 0.995837 9.35293 1.04344 9.5234C1.09104 9.69386 1.18303 9.84864 1.31001 9.97192L5.93201 14.4709L4.84201 20.8259L4.82901 20.9359C4.81854 21.1128 4.85528 21.2894 4.93546 21.4474C5.01564 21.6055 5.13639 21.7394 5.28535 21.8354C5.4343 21.9315 5.6061 21.9862 5.78316 21.994C5.96022 22.0018 6.13617 21.9625 6.29301 21.8799L11.999 18.8799L17.692 21.8799L17.792 21.9259C17.9571 21.9909 18.1365 22.0109 18.3118 21.9837C18.4871 21.9565 18.652 21.8832 18.7896 21.7712C18.9272 21.6592 19.0326 21.5127 19.0948 21.3466C19.1571 21.1804 19.1741 21.0008 19.144 20.8259L18.053 14.4709L22.677 9.97092L22.755 9.88592C22.8664 9.74869 22.9395 9.58438 22.9667 9.40972C22.994 9.23506 22.9744 9.0563 22.9101 8.89165C22.8458 8.72701 22.7389 8.58235 22.6005 8.47244C22.4621 8.36252 22.297 8.29126 22.122 8.26592L15.742 7.33992L12.89 1.55992C12.8075 1.39246 12.6797 1.25144 12.5212 1.15283C12.3627 1.05422 12.1797 1.00195 11.993 1.00195C11.8063 1.00195 11.6233 1.05422 11.4648 1.15283C11.3063 1.25144 11.1785 1.39246 11.096 1.55992L8.24301 7.33992Z" fill="black"></path>
  </symbol>
  <symbol fill="none" xmlns="http://www.w3.org/2000/svg" viewBox="0 0 24 24" id="Name=Player-skip-forward">
    <path d="M3 4.99981V18.9998C2.99995 19.1758 3.04632 19.3486 3.13444 19.5009C3.22256 19.6532 3.3493 19.7796 3.50188 19.8672C3.65445 19.9549 3.82744 20.0007 4.00339 20.0001C4.17935 19.9995 4.35203 19.9525 4.504 19.8638L16.504 12.8638C16.6551 12.7758 16.7804 12.6497 16.8675 12.4981C16.9547 12.3465 17.0005 12.1747 17.0005 11.9998C17.0005 11.825 16.9547 11.6532 16.8675 11.5016C16.7804 11.35 16.6551 11.2238 16.504 11.1358L4.504 4.13581C4.35203 4.04713 4.17935 4.00011 4.00339 3.99952C3.82744 3.99892 3.65445 4.04476 3.50188 4.13241C3.3493 4.22005 3.22256 4.3464 3.13444 4.4987C3.04632 4.651 2.99995 4.82385 3 4.99981Z" fill="black"></path>
    <path d="M20 4C20.2449 4.00003 20.4813 4.08996 20.6644 4.25272C20.8474 4.41547 20.9643 4.63975 20.993 4.883L21 5V19C20.9997 19.2549 20.9021 19.5 20.7272 19.6854C20.5522 19.8707 20.313 19.9822 20.0586 19.9972C19.8042 20.0121 19.5536 19.9293 19.3582 19.7657C19.1627 19.6021 19.0371 19.3701 19.007 19.117L19 19V5C19 4.73478 19.1054 4.48043 19.2929 4.29289C19.4804 4.10536 19.7348 4 20 4Z" fill="black"></path>
    <path d="M3 4.99981V18.9998C2.99995 19.1758 3.04632 19.3486 3.13444 19.5009C3.22256 19.6532 3.3493 19.7796 3.50188 19.8672C3.65445 19.9549 3.82744 20.0007 4.00339 20.0001C4.17935 19.9995 4.35203 19.9525 4.504 19.8638L16.504 12.8638C16.6551 12.7758 16.7804 12.6497 16.8675 12.4981C16.9547 12.3465 17.0005 12.1747 17.0005 11.9998C17.0005 11.825 16.9547 11.6532 16.8675 11.5016C16.7804 11.35 16.6551 11.2238 16.504 11.1358L4.504 4.13581C4.35203 4.04713 4.17935 4.00011 4.00339 3.99952C3.82744 3.99892 3.65445 4.04476 3.50188 4.13241C3.3493 4.22005 3.22256 4.3464 3.13444 4.4987C3.04632 4.651 2.99995 4.82385 3 4.99981Z" stroke="black"></path>
    <path d="M20 4C20.2449 4.00003 20.4813 4.08996 20.6644 4.25272C20.8474 4.41547 20.9643 4.63975 20.993 4.883L21 5V19C20.9997 19.2549 20.9021 19.5 20.7272 19.6854C20.5522 19.8707 20.313 19.9822 20.0586 19.9972C19.8042 20.0121 19.5536 19.9293 19.3582 19.7657C19.1627 19.6021 19.0371 19.3701 19.007 19.117L19 19V5C19 4.73478 19.1054 4.48043 19.2929 4.29289C19.4804 4.10536 19.7348 4 20 4Z" stroke="black"></path>
  </symbol>
  <symbol fill="none" xmlns="http://www.w3.org/2000/svg" viewBox="0 0 24 24" id="Name=Play">
    <path d="M6 3.99979V19.9998C5.99995 20.1777 6.04737 20.3524 6.13738 20.5059C6.22739 20.6594 6.35672 20.7861 6.51202 20.8729C6.66733 20.9598 6.84299 21.0036 7.02088 20.9999C7.19878 20.9961 7.37245 20.945 7.524 20.8518L20.524 12.8518C20.6696 12.7623 20.7898 12.637 20.8733 12.4879C20.9567 12.3387 21.0005 12.1707 21.0005 11.9998C21.0005 11.8289 20.9567 11.6609 20.8733 11.5117C20.7898 11.3626 20.6696 11.2373 20.524 11.1478L7.524 3.14779C7.37245 3.05456 7.19878 3.00345 7.02088 2.99973C6.84299 2.99601 6.66733 3.03983 6.51202 3.12665C6.35672 3.21348 6.22739 3.34017 6.13738 3.49366C6.04737 3.64714 5.99995 3.82186 6 3.99979Z" fill="black"></path>
  </symbol>
  <symbol fill="none" xmlns="http://www.w3.org/2000/svg" viewBox="0 0 24 24" id="Name=Player-skip-back">
    <path d="M19.496 4.13581L7.49602 11.1358C7.34495 11.2238 7.2196 11.35 7.13248 11.5016C7.04536 11.6532 6.99951 11.825 6.99951 11.9998C6.99951 12.1747 7.04536 12.3465 7.13248 12.4981C7.2196 12.6497 7.34495 12.7758 7.49602 12.8638L19.496 19.8638C19.648 19.9525 19.8207 19.9995 19.9966 20.0001C20.1726 20.0007 20.3456 19.9549 20.4981 19.8672C20.6507 19.7796 20.7775 19.6532 20.8656 19.5009C20.9537 19.3486 21.0001 19.1758 21 18.9998V4.99981C21.0001 4.82385 20.9537 4.651 20.8656 4.4987C20.7775 4.3464 20.6507 4.22005 20.4981 4.13241C20.3456 4.04476 20.1726 3.99892 19.9966 3.99952C19.8207 4.00011 19.648 4.04713 19.496 4.13581Z" fill="black"></path>
    <path d="M4 4C4.24493 4.00003 4.48134 4.08996 4.66437 4.25272C4.84741 4.41547 4.96434 4.63975 4.993 4.883L5 5V19C4.99972 19.2549 4.90212 19.5 4.72715 19.6854C4.55218 19.8707 4.31305 19.9822 4.05861 19.9972C3.80416 20.0121 3.55362 19.9293 3.35817 19.7657C3.16271 19.6021 3.0371 19.3701 3.007 19.117L3 19V5C3 4.73478 3.10536 4.48043 3.29289 4.29289C3.48043 4.10536 3.73478 4 4 4Z" fill="black"></path>
    <path d="M19.496 4.13581L7.49602 11.1358C7.34495 11.2238 7.2196 11.35 7.13248 11.5016C7.04536 11.6532 6.99951 11.825 6.99951 11.9998C6.99951 12.1747 7.04536 12.3465 7.13248 12.4981C7.2196 12.6497 7.34495 12.7758 7.49602 12.8638L19.496 19.8638C19.648 19.9525 19.8207 19.9995 19.9966 20.0001C20.1726 20.0007 20.3456 19.9549 20.4981 19.8672C20.6507 19.7796 20.7775 19.6532 20.8656 19.5009C20.9537 19.3486 21.0001 19.1758 21 18.9998V4.99981C21.0001 4.82385 20.9537 4.651 20.8656 4.4987C20.7775 4.3464 20.6507 4.22005 20.4981 4.13241C20.3456 4.04476 20.1726 3.99892 19.9966 3.99952C19.8207 4.00011 19.648 4.04713 19.496 4.13581Z" stroke="black"></path>
    <path d="M4 4C4.24493 4.00003 4.48134 4.08996 4.66437 4.25272C4.84741 4.41547 4.96434 4.63975 4.993 4.883L5 5V19C4.99972 19.2549 4.90212 19.5 4.72715 19.6854C4.55218 19.8707 4.31305 19.9822 4.05861 19.9972C3.80416 20.0121 3.55362 19.9293 3.35817 19.7657C3.16271 19.6021 3.0371 19.3701 3.007 19.117L3 19V5C3 4.73478 3.10536 4.48043 3.29289 4.29289C3.48043 4.10536 3.73478 4 4 4Z" stroke="black"></path>
  </symbol>
  <symbol fill="none" xmlns="http://www.w3.org/2000/svg" viewBox="0 0 24 24" id="Name=Location">
    <path d="M18.3641 4.63606C20.0164 6.28819 20.9614 8.51817 20.9993 10.8545C21.0372 13.1908 20.1649 15.4502 18.5671 17.1551L18.3641 17.3651L14.1211 21.6071C13.5827 22.1451 12.8599 22.4584 12.0992 22.4834C11.3385 22.5085 10.5967 22.2435 10.0241 21.7421L9.88006 21.6071L5.63606 17.3641C3.94822 15.6762 3 13.387 3 11.0001C3 8.61309 3.94822 6.32389 5.63606 4.63606C7.32389 2.94822 9.61309 2 12.0001 2C14.387 2 16.6762 2.94822 18.3641 4.63606ZM12.0001 8.00006C11.6061 8.00006 11.216 8.07765 10.852 8.22842C10.488 8.37918 10.1573 8.60016 9.87873 8.87873C9.60016 9.15731 9.37918 9.48803 9.22842 9.85201C9.07765 10.216 9.00006 10.6061 9.00006 11.0001C9.00006 11.394 9.07765 11.7841 9.22842 12.1481C9.37918 12.5121 9.60016 12.8428 9.87873 13.1214C10.1573 13.4 10.488 13.6209 10.852 13.7717C11.216 13.9225 11.6061 14.0001 12.0001 14.0001C12.7957 14.0001 13.5588 13.684 14.1214 13.1214C14.684 12.5588 15.0001 11.7957 15.0001 11.0001C15.0001 10.2044 14.684 9.44134 14.1214 8.87873C13.5588 8.31613 12.7957 8.00006 12.0001 8.00006Z" fill="black"></path>
  </symbol>
  <symbol fill="none" xmlns="http://www.w3.org/2000/svg" viewBox="0 0 24 24" id="Name=Player-pause">
    <path d="M9 4H7C6.46957 4 5.96086 4.21071 5.58579 4.58579C5.21071 4.96086 5 5.46957 5 6V18C5 18.5304 5.21071 19.0391 5.58579 19.4142C5.96086 19.7893 6.46957 20 7 20H9C9.53043 20 10.0391 19.7893 10.4142 19.4142C10.7893 19.0391 11 18.5304 11 18V6C11 5.46957 10.7893 4.96086 10.4142 4.58579C10.0391 4.21071 9.53043 4 9 4Z" fill="black"></path>
    <path d="M17 4H15C14.4696 4 13.9609 4.21071 13.5858 4.58579C13.2107 4.96086 13 5.46957 13 6V18C13 18.5304 13.2107 19.0391 13.5858 19.4142C13.9609 19.7893 14.4696 20 15 20H17C17.5304 20 18.0391 19.7893 18.4142 19.4142C18.7893 19.0391 19 18.5304 19 18V6C19 5.46957 18.7893 4.96086 18.4142 4.58579C18.0391 4.21071 17.5304 4 17 4Z" fill="black"></path>
    <path d="M9 4H7C6.46957 4 5.96086 4.21071 5.58579 4.58579C5.21071 4.96086 5 5.46957 5 6V18C5 18.5304 5.21071 19.0391 5.58579 19.4142C5.96086 19.7893 6.46957 20 7 20H9C9.53043 20 10.0391 19.7893 10.4142 19.4142C10.7893 19.0391 11 18.5304 11 18V6C11 5.46957 10.7893 4.96086 10.4142 4.58579C10.0391 4.21071 9.53043 4 9 4Z" stroke="black"></path>
    <path d="M17 4H15C14.4696 4 13.9609 4.21071 13.5858 4.58579C13.2107 4.96086 13 5.46957 13 6V18C13 18.5304 13.2107 19.0391 13.5858 19.4142C13.9609 19.7893 14.4696 20 15 20H17C17.5304 20 18.0391 19.7893 18.4142 19.4142C18.7893 19.0391 19 18.5304 19 18V6C19 5.46957 18.7893 4.96086 18.4142 4.58579C18.0391 4.21071 17.5304 4 17 4Z" stroke="black"></path>
  </symbol>
</svg>