<?xml version="1.0" encoding="UTF-8"?>
<svg xmlns="http://www.w3.org/2000/svg" xmlns:xlink="http://www.w3.org/1999/xlink" width="0" height="0">
<symbol id="Name=15 Back" width="24" height="24" viewBox="0 0 24 24" fill="none">
<path d="M8 20H10C10.2652 20 10.5196 19.8946 10.7071 19.7071C10.8946 19.5196 11 19.2652 11 19V18C11 17.7348 10.8946 17.4804 10.7071 17.2929C10.5196 17.1054 10.2652 17 10 17H8V14H11M15 18C16.5913 18 18.1174 17.3679 19.2426 16.2426C20.3679 15.1174 21 13.5913 21 12C21 10.4087 20.3679 8.88258 19.2426 7.75736C18.1174 6.63214 16.5913 6 15 6H4M4 6L7 9M4 6L7 3M5 14V20"  stroke-width="1.5" stroke-linecap="round" stroke-linejoin="round"/>
</symbol>

<symbol id="Name=15 Forward" width="24" height="24" viewBox="0 0 24 24" fill="none">
<path d="M17 9L20 6M20 6L17 3M20 6H9C7.4087 6 5.88258 6.63214 4.75736 7.75736C3.63214 8.88258 3 10.4087 3 12C3 13.5913 3.63214 15.1174 4.75736 16.2426C5.88258 17.3679 7.4087 18 9 18M16 20H18C18.2652 20 18.5196 19.8946 18.7071 19.7071C18.8946 19.5196 19 19.2652 19 19V18C19 17.7348 18.8946 17.4804 18.7071 17.2929C18.5196 17.1054 18.2652 17 18 17H16V14H19M13 14V20"  stroke-width="1.5" stroke-linecap="round" stroke-linejoin="round"/>
</symbol>

<symbol id="Name=Arrow Back" width="24" height="24" viewBox="0 0 24 24" fill="none">
<path d="M9 11L5 15M5 15L9 19M5 15H16C17.0609 15 18.0783 14.5786 18.8284 13.8284C19.5786 13.0783 20 12.0609 20 11C20 9.93913 19.5786 8.92172 18.8284 8.17157C18.0783 7.42143 17.0609 7 16 7H15"  stroke-width="1.5" stroke-linecap="round" stroke-linejoin="round"/>
</symbol>

<symbol id="Name=Arrow Forward" width="24" height="24" viewBox="0 0 24 24" fill="none">
<path d="M15 14L19 10M19 10L15 6M19 10H8C6.93913 10 5.92172 10.4214 5.17157 11.1716C4.42143 11.9217 4 12.9391 4 14C4 15.0609 4.42143 16.0783 5.17157 16.8284C5.92172 17.5786 6.93913 18 8 18H9"  stroke-width="1.5" stroke-linecap="round" stroke-linejoin="round"/>
</symbol>

<symbol id="Name=Arrows-maximize" width="24" height="24" viewBox="0 0 24 24" fill="none">
<path d="M16 4H20M20 4V8M20 4L14 10M8 20H4M4 20V16M4 20L10 14M16 20H20M20 20V16M20 20L14 14M8 4H4M4 4V8M4 4L10 10"  stroke-width="1.5" stroke-linecap="round" stroke-linejoin="round"/>
</symbol>

<symbol id="Name=Arrows-minimize" width="24" height="24" viewBox="0 0 24 24" fill="none">
<path d="M5 9H9M9 9V5M9 9L3 3M5 15H9M9 15V19M9 15L3 21M19 9H15M15 9V5M15 9L21 3M19 15H15M15 15V19M15 15L21 21"  stroke-width="1.5" stroke-linecap="round" stroke-linejoin="round"/>
</symbol>

<symbol id="Name=Bookmark" width="24" height="24" viewBox="0 0 24 24" fill="none">
<path d="M18 7V21L12 17L6 21V7C6 5.93913 6.42143 4.92172 7.17157 4.17157C7.92172 3.42143 8.93913 3 10 3H14C15.0609 3 16.0783 3.42143 16.8284 4.17157C17.5786 4.92172 18 5.93913 18 7Z"  stroke-width="1.5" stroke-linecap="round" stroke-linejoin="round"/>
</symbol>

<symbol id="Name=Building-bank" width="24" height="24" viewBox="0 0 24 24" fill="none">
<path d="M3 21H21M3 10H21M5 6L12 3L19 6M4 10V21M20 10V21M8 14V17M12 14V17M16 14V17"  stroke-width="1.5" stroke-linecap="round" stroke-linejoin="round"/>
</symbol>

<symbol id="Name=Calendar-month" width="24" height="24" viewBox="0 0 24 24" fill="none">
<path d="M16 3V7M8 3V7M4 11H20M7 14H7.013M10.01 14H10.015M13.01 14H13.015M16.015 14H16.02M13.015 17H13.02M7.01001 17H7.01501M10.01 17H10.015M4 7C4 6.46957 4.21071 5.96086 4.58579 5.58579C4.96086 5.21071 5.46957 5 6 5H18C18.5304 5 19.0391 5.21071 19.4142 5.58579C19.7893 5.96086 20 6.46957 20 7V19C20 19.5304 19.7893 20.0391 19.4142 20.4142C19.0391 20.7893 18.5304 21 18 21H6C5.46957 21 4.96086 20.7893 4.58579 20.4142C4.21071 20.0391 4 19.5304 4 19V7Z"  stroke-width="1.5" stroke-linecap="round" stroke-linejoin="round"/>
</symbol>

<symbol id="Name=Category" width="24" height="24" viewBox="0 0 24 24" fill="none">
<path d="M4 4H10V10H4V4Z"  stroke-width="1.5" stroke-linecap="round" stroke-linejoin="round"/>
<path d="M14 4H20V10H14V4Z"  stroke-width="1.5" stroke-linecap="round" stroke-linejoin="round"/>
<path d="M4 14H10V20H4V14Z"  stroke-width="1.5" stroke-linecap="round" stroke-linejoin="round"/>
<path d="M14 17C14 17.7956 14.3161 18.5587 14.8787 19.1213C15.4413 19.6839 16.2044 20 17 20C17.7956 20 18.5587 19.6839 19.1213 19.1213C19.6839 18.5587 20 17.7956 20 17C20 16.2044 19.6839 15.4413 19.1213 14.8787C18.5587 14.3161 17.7956 14 17 14C16.2044 14 15.4413 14.3161 14.8787 14.8787C14.3161 15.4413 14 16.2044 14 17Z"  stroke-width="1.5" stroke-linecap="round" stroke-linejoin="round"/>
</symbol>

<symbol id="Name=Chat" width="24" height="24" viewBox="0 0 24 24" fill="none">
<path d="M3 20.0001L4.3 16.1001C3.17644 14.4384 2.76999 12.4705 3.15622 10.5624C3.54244 8.65427 4.69506 6.93575 6.39977 5.72635C8.10447 4.51696 10.2453 3.89898 12.4241 3.98732C14.6029 4.07566 16.6715 4.86431 18.2453 6.20664C19.819 7.54896 20.7909 9.35362 20.9801 11.2851C21.1693 13.2165 20.563 15.1433 19.2739 16.7072C17.9848 18.2711 16.1007 19.3657 13.9718 19.7874C11.8429 20.2092 9.6142 19.9294 7.7 19.0001L3 20.0001Z"  stroke-width="1.5" stroke-linecap="round" stroke-linejoin="round"/>
</symbol>

<symbol id="Name=Check" width="24" height="24" viewBox="0 0 24 24" fill="none">
<path d="M5 12L10 17L20 7"  stroke-width="1.5" stroke-linecap="round" stroke-linejoin="round"/>
</symbol>

<symbol id="Name=Chevron-down-left" width="24" height="24" viewBox="0 0 24 24" fill="none">
<path d="M8 8V16H16"  stroke-width="1.5" stroke-linecap="round" stroke-linejoin="round"/>
</symbol>

<symbol id="Name=Chevron-down-right" width="24" height="24" viewBox="0 0 24 24" fill="none">
<path d="M16 8V16H8"  stroke-width="1.5" stroke-linecap="round" stroke-linejoin="round"/>
</symbol>

<symbol id="Name=Chevron-down" width="24" height="24" viewBox="0 0 24 24" fill="none">
<path d="M6 9L12 15L18 9"  stroke-width="1.5" stroke-linecap="round" stroke-linejoin="round"/>
</symbol>

<symbol id="Name=Chevron-left" width="24" height="24" viewBox="0 0 24 24" fill="none">
<path d="M15 6L9 12L15 18"  stroke-width="1.5" stroke-linecap="round" stroke-linejoin="round"/>
</symbol>

<symbol id="Name=Chevron-right" width="24" height="24" viewBox="0 0 24 24" fill="none">
<path d="M9 6L15 12L9 18"  stroke-width="1.5" stroke-linecap="round" stroke-linejoin="round"/>
</symbol>

<symbol id="Name=Chevron-up-left" width="24" height="24" viewBox="0 0 24 24" fill="none">
<path d="M8 16V8H16"  stroke-width="1.5" stroke-linecap="round" stroke-linejoin="round"/>
</symbol>

<symbol id="Name=Chevron-up-right" width="24" height="24" viewBox="0 0 24 24" fill="none">
<path d="M8 8H16V16"  stroke-width="1.5" stroke-linecap="round" stroke-linejoin="round"/>
</symbol>

<symbol id="Name=Chevron-up" width="24" height="24" viewBox="0 0 24 24" fill="none">
<path d="M6 15L12 9L18 15"  stroke-width="1.5" stroke-linecap="round" stroke-linejoin="round"/>
</symbol>

<symbol id="Name=ChIna" width="24" height="24" viewBox="0 0 24 24" fill="none">
<path d="M3 21H10V18C10 17.4696 10.2107 16.9609 10.5858 16.5858C10.9609 16.2107 11.4696 16 12 16C12.5304 16 13.0391 16.2107 13.4142 16.5858C13.7893 16.9609 14 17.4696 14 18V21H21M6 21V12M6 12H18M6 12C5.20435 12 4.44129 11.6839 3.87868 11.1213C3.31607 10.5587 3 9.79565 3 9C5.04383 9.05748 7.04875 8.49459 8.68463 7.404C10.3205 6.31342 11.4898 4.76016 12 3C12.5102 4.76016 13.6795 6.31342 15.3154 7.404C16.9513 8.49459 18.9562 9.05748 21 9C21 9.79565 20.6839 10.5587 20.1213 11.1213C19.5587 11.6839 18.7956 12 18 12M18 21V12"  stroke-width="1.5" stroke-linecap="round" stroke-linejoin="round"/>
</symbol>

<symbol id="Name=Cinema Glasses" width="24" height="24" viewBox="0 0 24 24" fill="none">
<path d="M8 3H6L3 12M3 12V19C3 19.2652 3.10536 19.5196 3.29289 19.7071C3.48043 19.8946 3.73478 20 4 20H8.586C8.8512 19.9999 9.10551 19.8946 9.293 19.707L11.293 17.707C11.4805 17.5195 11.7348 17.4142 12 17.4142C12.2652 17.4142 12.5195 17.5195 12.707 17.707L14.707 19.707C14.8945 19.8946 15.1488 19.9999 15.414 20H20C20.2652 20 20.5196 19.8946 20.7071 19.7071C20.8946 19.5196 21 19.2652 21 19V12M3 12H21M16 3H18L21 12M7 16H8M16 16H17"  stroke-width="1.5" stroke-linecap="round" stroke-linejoin="round"/>
</symbol>

<symbol id="Name=Clock" width="24" height="24" viewBox="0 0 24 24" fill="none">
<path d="M12 7V12L15 15M3 12C3 13.1819 3.23279 14.3522 3.68508 15.4442C4.13738 16.5361 4.80031 17.5282 5.63604 18.364C6.47177 19.1997 7.46392 19.8626 8.55585 20.3149C9.64778 20.7672 10.8181 21 12 21C13.1819 21 14.3522 20.7672 15.4442 20.3149C16.5361 19.8626 17.5282 19.1997 18.364 18.364C19.1997 17.5282 19.8626 16.5361 20.3149 15.4442C20.7672 14.3522 21 13.1819 21 12C21 9.61305 20.0518 7.32387 18.364 5.63604C16.6761 3.94821 14.3869 3 12 3C9.61305 3 7.32387 3.94821 5.63604 5.63604C3.94821 7.32387 3 9.61305 3 12Z"  stroke-width="1.5" stroke-linecap="round" stroke-linejoin="round"/>
</symbol>

<symbol id="Name=Dots" width="24" height="24" viewBox="0 0 24 24" fill="none">
<path d="M4 12C4 12.2652 4.10536 12.5196 4.29289 12.7071C4.48043 12.8946 4.73478 13 5 13C5.26522 13 5.51957 12.8946 5.70711 12.7071C5.89464 12.5196 6 12.2652 6 12C6 11.7348 5.89464 11.4804 5.70711 11.2929C5.51957 11.1054 5.26522 11 5 11C4.73478 11 4.48043 11.1054 4.29289 11.2929C4.10536 11.4804 4 11.7348 4 12Z"  stroke-width="1.5" stroke-linecap="round" stroke-linejoin="round"/>
<path d="M11 12C11 12.2652 11.1054 12.5196 11.2929 12.7071C11.4804 12.8946 11.7348 13 12 13C12.2652 13 12.5196 12.8946 12.7071 12.7071C12.8946 12.5196 13 12.2652 13 12C13 11.7348 12.8946 11.4804 12.7071 11.2929C12.5196 11.1054 12.2652 11 12 11C11.7348 11 11.4804 11.1054 11.2929 11.2929C11.1054 11.4804 11 11.7348 11 12Z"  stroke-width="1.5" stroke-linecap="round" stroke-linejoin="round"/>
<path d="M18 12C18 12.2652 18.1054 12.5196 18.2929 12.7071C18.4804 12.8946 18.7348 13 19 13C19.2652 13 19.5196 12.8946 19.7071 12.7071C19.8946 12.5196 20 12.2652 20 12C20 11.7348 19.8946 11.4804 19.7071 11.2929C19.5196 11.1054 19.2652 11 19 11C18.7348 11 18.4804 11.1054 18.2929 11.2929C18.1054 11.4804 18 11.7348 18 12Z"  stroke-width="1.5" stroke-linecap="round" stroke-linejoin="round"/>
</symbol>

<symbol id="Name=Edit" width="24" height="24" viewBox="0 0 24 24" fill="none">
<path d="M13.5 6.5L17.5 10.5M4 20.0001H8L18.5 9.50006C18.7626 9.23741 18.971 8.92561 19.1131 8.58245C19.2553 8.23929 19.3284 7.87149 19.3284 7.50006C19.3284 7.12862 19.2553 6.76083 19.1131 6.41767C18.971 6.07451 18.7626 5.7627 18.5 5.50006C18.2374 5.23741 17.9256 5.02907 17.5824 4.88693C17.2392 4.74479 16.8714 4.67163 16.5 4.67163C16.1286 4.67163 15.7608 4.74479 15.4176 4.88693C15.0744 5.02907 14.7626 5.23741 14.5 5.50006L4 16.0001V20.0001Z"  stroke-width="1.5" stroke-linecap="round" stroke-linejoin="round"/>
</symbol>

<symbol id="Name=Endless" width="24" height="24" viewBox="0 0 24 24" fill="none">
<path d="M11.9999 12C11.4512 13.0652 10.7155 14.0231 9.82788 14.828C9.26852 15.3875 8.55579 15.7686 7.77983 15.9231C7.00387 16.0775 6.19954 15.9984 5.46857 15.6956C4.73759 15.3929 4.11281 14.8802 3.67323 14.2224C3.23365 13.5646 2.99902 12.7912 2.99902 12C2.99902 11.2088 3.23365 10.4354 3.67323 9.7776C4.11281 9.11977 4.73759 8.60708 5.46857 8.30437C6.19954 8.00165 7.00387 7.92251 7.77983 8.07695C8.55579 8.23139 9.26852 8.61247 9.82788 9.172C10.7155 9.97693 11.4512 10.9348 11.9999 12ZM11.9999 12C12.5486 10.9348 13.2843 9.97693 14.1719 9.172C14.7312 8.61247 15.444 8.23139 16.2199 8.07695C16.9959 7.92251 17.8002 8.00165 18.5312 8.30437C19.2622 8.60708 19.8869 9.11977 20.3265 9.7776C20.7661 10.4354 21.0007 11.2088 21.0007 12C21.0007 12.7912 20.7661 13.5646 20.3265 14.2224C19.8869 14.8802 19.2622 15.3929 18.5312 15.6956C17.8002 15.9984 16.9959 16.0775 16.2199 15.9231C15.444 15.7686 14.7312 15.3875 14.1719 14.828C13.2843 14.0231 12.5486 13.0652 11.9999 12Z"  stroke-width="1.5" stroke-linecap="round" stroke-linejoin="round"/>
</symbol>

<symbol id="Name=Events" width="24" height="24" viewBox="0 0 24 24" fill="none">
<path d="M16 3V7M8 3V7M4 11H20M4 7C4 6.46957 4.21071 5.96086 4.58579 5.58579C4.96086 5.21071 5.46957 5 6 5H18C18.5304 5 19.0391 5.21071 19.4142 5.58579C19.7893 5.96086 20 6.46957 20 7V19C20 19.5304 19.7893 20.0391 19.4142 20.4142C19.0391 20.7893 18.5304 21 18 21H6C5.46957 21 4.96086 20.7893 4.58579 20.4142C4.21071 20.0391 4 19.5304 4 19V7ZM8 15H10V17H8V15Z"  stroke-width="1.5" stroke-linecap="round" stroke-linejoin="round"/>
</symbol>

<symbol id="Name=Eye-off" width="24" height="24" viewBox="0 0 24 24" fill="none">
<path d="M10.5851 10.5869C10.21 10.9621 9.99942 11.4708 9.99951 12.0013C9.99961 12.5317 10.2104 13.0404 10.5856 13.4154C10.9607 13.7904 11.4695 14.0011 11.9999 14.001C12.5304 14.0009 13.039 13.7901 13.4141 13.4149M16.681 16.673C15.2782 17.5507 13.6547 18.0109 12 18C8.4 18 5.4 16 3 12C4.272 9.88003 5.712 8.32203 7.32 7.32603M10.18 6.18003C10.779 6.05876 11.3888 5.99845 12 6.00003C15.6 6.00003 18.6 8.00003 21 12C20.334 13.11 19.621 14.067 18.862 14.87M3 3L21 21"  stroke-width="1.5" stroke-linecap="round" stroke-linejoin="round"/>
</symbol>

<symbol id="Name=File Download" width="24" height="24" viewBox="0 0 24 24" fill="none">
<path d="M14 3V7C14 7.26522 14.1054 7.51957 14.2929 7.70711C14.4804 7.89464 14.7348 8 15 8H19M14 3H7C6.46957 3 5.96086 3.21071 5.58579 3.58579C5.21071 3.96086 5 4.46957 5 5V19C5 19.5304 5.21071 20.0391 5.58579 20.4142C5.96086 20.7893 6.46957 21 7 21H17C17.5304 21 18.0391 20.7893 18.4142 20.4142C18.7893 20.0391 19 19.5304 19 19V8M14 3L19 8M12 17V11M12 17L9.5 14.5M12 17L14.5 14.5"  stroke-width="1.5" stroke-linecap="round" stroke-linejoin="round"/>
</symbol>

<symbol id="Name=File" width="24" height="24" viewBox="0 0 24 24" fill="none">
<path d="M14 3V7C14 7.26522 14.1054 7.51957 14.2929 7.70711C14.4804 7.89464 14.7348 8 15 8H19M14 3H7C6.46957 3 5.96086 3.21071 5.58579 3.58579C5.21071 3.96086 5 4.46957 5 5V19C5 19.5304 5.21071 20.0391 5.58579 20.4142C5.96086 20.7893 6.46957 21 7 21H17C17.5304 21 18.0391 20.7893 18.4142 20.4142C18.7893 20.0391 19 19.5304 19 19V8M14 3L19 8"  stroke-width="1.5" stroke-linecap="round" stroke-linejoin="round"/>
</symbol>

<symbol id="Name=Filter" width="24" height="24" viewBox="0 0 24 24" fill="none">
<path d="M12 6C12 6.53043 12.2107 7.03914 12.5858 7.41421C12.9609 7.78929 13.4696 8 14 8C14.5304 8 15.0391 7.78929 15.4142 7.41421C15.7893 7.03914 16 6.53043 16 6M12 6C12 5.46957 12.2107 4.96086 12.5858 4.58579C12.9609 4.21071 13.4696 4 14 4C14.5304 4 15.0391 4.21071 15.4142 4.58579C15.7893 4.96086 16 5.46957 16 6M12 6H4M16 6H20M6 12C6 12.5304 6.21071 13.0391 6.58579 13.4142C6.96086 13.7893 7.46957 14 8 14C8.53043 14 9.03914 13.7893 9.41421 13.4142C9.78929 13.0391 10 12.5304 10 12M6 12C6 11.4696 6.21071 10.9609 6.58579 10.5858C6.96086 10.2107 7.46957 10 8 10C8.53043 10 9.03914 10.2107 9.41421 10.5858C9.78929 10.9609 10 11.4696 10 12M6 12H4M10 12H20M15 18C15 18.5304 15.2107 19.0391 15.5858 19.4142C15.9609 19.7893 16.4696 20 17 20C17.5304 20 18.0391 19.7893 18.4142 19.4142C18.7893 19.0391 19 18.5304 19 18M15 18C15 17.4696 15.2107 16.9609 15.5858 16.5858C15.9609 16.2107 16.4696 16 17 16C17.5304 16 18.0391 16.2107 18.4142 16.5858C18.7893 16.9609 19 17.4696 19 18M15 18H4M19 18H20"  stroke-width="1.5" stroke-linecap="round" stroke-linejoin="round"/>
</symbol>

<symbol id="Name=Full File" width="24" height="24" viewBox="0 0 24 24" fill="none">
<path d="M9 7H15M9 11H15M9 15H13M5 5C5 4.46957 5.21071 3.96086 5.58579 3.58579C5.96086 3.21071 6.46957 3 7 3H17C17.5304 3 18.0391 3.21071 18.4142 3.58579C18.7893 3.96086 19 4.46957 19 5V19C19 19.5304 18.7893 20.0391 18.4142 20.4142C18.0391 20.7893 17.5304 21 17 21H7C6.46957 21 5.96086 20.7893 5.58579 20.4142C5.21071 20.0391 5 19.5304 5 19V5Z"  stroke-width="1.5" stroke-linecap="round" stroke-linejoin="round"/>
</symbol>

<symbol id="Name=Globe" width="24" height="24" viewBox="0 0 24 24" fill="none">
<path d="M3.6001 9H20.4001M3.6001 15H20.4001M11.4999 3C9.81525 5.69961 8.92212 8.81787 8.92212 12C8.92212 15.1821 9.81525 18.3004 11.4999 21M12.5 3C14.1847 5.69961 15.0778 8.81787 15.0778 12C15.0778 15.1821 14.1847 18.3004 12.5 21M3 12C3 13.1819 3.23279 14.3522 3.68508 15.4442C4.13738 16.5361 4.80031 17.5282 5.63604 18.364C6.47177 19.1997 7.46392 19.8626 8.55585 20.3149C9.64778 20.7672 10.8181 21 12 21C13.1819 21 14.3522 20.7672 15.4442 20.3149C16.5361 19.8626 17.5282 19.1997 18.364 18.364C19.1997 17.5282 19.8626 16.5361 20.3149 15.4442C20.7672 14.3522 21 13.1819 21 12C21 9.61305 20.0518 7.32387 18.364 5.63604C16.6761 3.94821 14.3869 3 12 3C9.61305 3 7.32387 3.94821 5.63604 5.63604C3.94821 7.32387 3 9.61305 3 12Z"  stroke-width="1.5" stroke-linecap="round" stroke-linejoin="round"/>
</symbol>

<symbol id="Name=Grid 1" width="24" height="24" viewBox="0 0 24 24" fill="none">
<path d="M4 5C4 4.73478 4.10536 4.48043 4.29289 4.29289C4.48043 4.10536 4.73478 4 5 4H9C9.26522 4 9.51957 4.10536 9.70711 4.29289C9.89464 4.48043 10 4.73478 10 5V9C10 9.26522 9.89464 9.51957 9.70711 9.70711C9.51957 9.89464 9.26522 10 9 10H5C4.73478 10 4.48043 9.89464 4.29289 9.70711C4.10536 9.51957 4 9.26522 4 9V5Z"  stroke-width="1.5" stroke-linecap="round" stroke-linejoin="round"/>
<path d="M14 5C14 4.73478 14.1054 4.48043 14.2929 4.29289C14.4804 4.10536 14.7348 4 15 4H19C19.2652 4 19.5196 4.10536 19.7071 4.29289C19.8946 4.48043 20 4.73478 20 5V9C20 9.26522 19.8946 9.51957 19.7071 9.70711C19.5196 9.89464 19.2652 10 19 10H15C14.7348 10 14.4804 9.89464 14.2929 9.70711C14.1054 9.51957 14 9.26522 14 9V5Z"  stroke-width="1.5" stroke-linecap="round" stroke-linejoin="round"/>
<path d="M4 15C4 14.7348 4.10536 14.4804 4.29289 14.2929C4.48043 14.1054 4.73478 14 5 14H9C9.26522 14 9.51957 14.1054 9.70711 14.2929C9.89464 14.4804 10 14.7348 10 15V19C10 19.2652 9.89464 19.5196 9.70711 19.7071C9.51957 19.8946 9.26522 20 9 20H5C4.73478 20 4.48043 19.8946 4.29289 19.7071C4.10536 19.5196 4 19.2652 4 19V15Z"  stroke-width="1.5" stroke-linecap="round" stroke-linejoin="round"/>
<path d="M14 15C14 14.7348 14.1054 14.4804 14.2929 14.2929C14.4804 14.1054 14.7348 14 15 14H19C19.2652 14 19.5196 14.1054 19.7071 14.2929C19.8946 14.4804 20 14.7348 20 15V19C20 19.2652 19.8946 19.5196 19.7071 19.7071C19.5196 19.8946 19.2652 20 19 20H15C14.7348 20 14.4804 19.8946 14.2929 19.7071C14.1054 19.5196 14 19.2652 14 19V15Z"  stroke-width="1.5" stroke-linecap="round" stroke-linejoin="round"/>
</symbol>

<symbol id="Name=Grid" width="24" height="24" viewBox="0 0 24 24" fill="none">
<path d="M4 5C4 5.26522 4.10536 5.51957 4.29289 5.70711C4.48043 5.89464 4.73478 6 5 6C5.26522 6 5.51957 5.89464 5.70711 5.70711C5.89464 5.51957 6 5.26522 6 5C6 4.73478 5.89464 4.48043 5.70711 4.29289C5.51957 4.10536 5.26522 4 5 4C4.73478 4 4.48043 4.10536 4.29289 4.29289C4.10536 4.48043 4 4.73478 4 5Z"  stroke-width="2" stroke-linecap="round" stroke-linejoin="round"/>
<path d="M11 5C11 5.26522 11.1054 5.51957 11.2929 5.70711C11.4804 5.89464 11.7348 6 12 6C12.2652 6 12.5196 5.89464 12.7071 5.70711C12.8946 5.51957 13 5.26522 13 5C13 4.73478 12.8946 4.48043 12.7071 4.29289C12.5196 4.10536 12.2652 4 12 4C11.7348 4 11.4804 4.10536 11.2929 4.29289C11.1054 4.48043 11 4.73478 11 5Z"  stroke-width="2" stroke-linecap="round" stroke-linejoin="round"/>
<path d="M18 5C18 5.26522 18.1054 5.51957 18.2929 5.70711C18.4804 5.89464 18.7348 6 19 6C19.2652 6 19.5196 5.89464 19.7071 5.70711C19.8946 5.51957 20 5.26522 20 5C20 4.73478 19.8946 4.48043 19.7071 4.29289C19.5196 4.10536 19.2652 4 19 4C18.7348 4 18.4804 4.10536 18.2929 4.29289C18.1054 4.48043 18 4.73478 18 5Z"  stroke-width="2" stroke-linecap="round" stroke-linejoin="round"/>
<path d="M4 12C4 12.2652 4.10536 12.5196 4.29289 12.7071C4.48043 12.8946 4.73478 13 5 13C5.26522 13 5.51957 12.8946 5.70711 12.7071C5.89464 12.5196 6 12.2652 6 12C6 11.7348 5.89464 11.4804 5.70711 11.2929C5.51957 11.1054 5.26522 11 5 11C4.73478 11 4.48043 11.1054 4.29289 11.2929C4.10536 11.4804 4 11.7348 4 12Z"  stroke-width="2" stroke-linecap="round" stroke-linejoin="round"/>
<path d="M11 12C11 12.2652 11.1054 12.5196 11.2929 12.7071C11.4804 12.8946 11.7348 13 12 13C12.2652 13 12.5196 12.8946 12.7071 12.7071C12.8946 12.5196 13 12.2652 13 12C13 11.7348 12.8946 11.4804 12.7071 11.2929C12.5196 11.1054 12.2652 11 12 11C11.7348 11 11.4804 11.1054 11.2929 11.2929C11.1054 11.4804 11 11.7348 11 12Z"  stroke-width="2" stroke-linecap="round" stroke-linejoin="round"/>
<path d="M18 12C18 12.2652 18.1054 12.5196 18.2929 12.7071C18.4804 12.8946 18.7348 13 19 13C19.2652 13 19.5196 12.8946 19.7071 12.7071C19.8946 12.5196 20 12.2652 20 12C20 11.7348 19.8946 11.4804 19.7071 11.2929C19.5196 11.1054 19.2652 11 19 11C18.7348 11 18.4804 11.1054 18.2929 11.2929C18.1054 11.4804 18 11.7348 18 12Z"  stroke-width="2" stroke-linecap="round" stroke-linejoin="round"/>
<path d="M4 19C4 19.2652 4.10536 19.5196 4.29289 19.7071C4.48043 19.8946 4.73478 20 5 20C5.26522 20 5.51957 19.8946 5.70711 19.7071C5.89464 19.5196 6 19.2652 6 19C6 18.7348 5.89464 18.4804 5.70711 18.2929C5.51957 18.1054 5.26522 18 5 18C4.73478 18 4.48043 18.1054 4.29289 18.2929C4.10536 18.4804 4 18.7348 4 19Z"  stroke-width="2" stroke-linecap="round" stroke-linejoin="round"/>
<path d="M11 19C11 19.2652 11.1054 19.5196 11.2929 19.7071C11.4804 19.8946 11.7348 20 12 20C12.2652 20 12.5196 19.8946 12.7071 19.7071C12.8946 19.5196 13 19.2652 13 19C13 18.7348 12.8946 18.4804 12.7071 18.2929C12.5196 18.1054 12.2652 18 12 18C11.7348 18 11.4804 18.1054 11.2929 18.2929C11.1054 18.4804 11 18.7348 11 19Z"  stroke-width="2" stroke-linecap="round" stroke-linejoin="round"/>
<path d="M18 19C18 19.2652 18.1054 19.5196 18.2929 19.7071C18.4804 19.8946 18.7348 20 19 20C19.2652 20 19.5196 19.8946 19.7071 19.7071C19.8946 19.5196 20 19.2652 20 19C20 18.7348 19.8946 18.4804 19.7071 18.2929C19.5196 18.1054 19.2652 18 19 18C18.7348 18 18.4804 18.1054 18.2929 18.2929C18.1054 18.4804 18 18.7348 18 19Z"  stroke-width="2" stroke-linecap="round" stroke-linejoin="round"/>
</symbol>

<symbol id="Name=Heart" width="24" height="24" viewBox="0 0 24 24" fill="none">
<path d="M19.5001 12.5722L12.0001 20.0002L4.50006 12.5722C4.00536 12.0908 3.6157 11.5122 3.3556 10.8728C3.09551 10.2334 2.97062 9.54713 2.98879 8.85711C3.00697 8.16709 3.16782 7.48831 3.46121 6.86351C3.75461 6.23871 4.17419 5.68143 4.69354 5.22676C5.21289 4.77208 5.82076 4.42987 6.47887 4.22166C7.13697 4.01345 7.83106 3.94376 8.51743 4.01698C9.20379 4.0902 9.86756 4.30473 10.4669 4.64708C11.0663 4.98943 11.5883 5.45218 12.0001 6.00618C12.4136 5.4562 12.9362 4.9975 13.5352 4.65878C14.1341 4.32007 14.7966 4.10863 15.481 4.0377C16.1654 3.96677 16.8571 4.03787 17.5128 4.24657C18.1685 4.45526 18.7741 4.79705 19.2916 5.25054C19.8091 5.70403 20.2275 6.25946 20.5205 6.88207C20.8135 7.50468 20.9748 8.18106 20.9944 8.86889C21.0139 9.55671 20.8913 10.2412 20.6342 10.8794C20.3771 11.5177 19.991 12.096 19.5001 12.5782"  stroke-width="1.5" stroke-linecap="round" stroke-linejoin="round"/>
</symbol>

<symbol id="Name=Horse" width="24" height="24" viewBox="0 0 24 24" fill="none">
<path d="M3.5 17.5C9.167 22.167 14.833 22.167 20.5 17.5M19 18.5L17 10L18 8L20 9L21.5 7.5L19 3C13.948 3.218 13.01 6.133 12 9H6C5.20435 9 4.44129 9.31607 3.87868 9.87868C3.31607 10.4413 3 11.2044 3 12M5 18.5L7 9M8 20L10 15H14L16 20"  stroke-width="1.5" stroke-linecap="round" stroke-linejoin="round"/>
</symbol>

<symbol id="Name=Img" width="24" height="24" viewBox="0 0 24 24" fill="none">
<path d="M15 8H15.01M3 16L8 11C8.928 10.107 10.072 10.107 11 11L16 16M14 14L15 13C15.928 12.107 17.072 12.107 18 13L21 16M3 6C3 5.20435 3.31607 4.44129 3.87868 3.87868C4.44129 3.31607 5.20435 3 6 3H18C18.7956 3 19.5587 3.31607 20.1213 3.87868C20.6839 4.44129 21 5.20435 21 6V18C21 18.7956 20.6839 19.5587 20.1213 20.1213C19.5587 20.6839 18.7956 21 18 21H6C5.20435 21 4.44129 20.6839 3.87868 20.1213C3.31607 19.5587 3 18.7956 3 18V6Z"  stroke-width="1.5" stroke-linecap="round" stroke-linejoin="round"/>
</symbol>

<symbol id="Name=IPhone" width="24" height="24" viewBox="0 0 24 24" fill="none">
<path d="M11 4H13M12 17V17.01M6 5C6 4.46957 6.21071 3.96086 6.58579 3.58579C6.96086 3.21071 7.46957 3 8 3H16C16.5304 3 17.0391 3.21071 17.4142 3.58579C17.7893 3.96086 18 4.46957 18 5V19C18 19.5304 17.7893 20.0391 17.4142 20.4142C17.0391 20.7893 16.5304 21 16 21H8C7.46957 21 6.96086 20.7893 6.58579 20.4142C6.21071 20.0391 6 19.5304 6 19V5Z"  stroke-width="1.5" stroke-linecap="round" stroke-linejoin="round"/>
</symbol>

<symbol id="Name=Key" width="24" height="24" viewBox="0 0 24 24" fill="none">
<path d="M15 9H15.01M16.555 3.84281L20.157 7.44481C20.4242 7.71197 20.6362 8.02914 20.7808 8.37823C20.9254 8.72731 20.9998 9.10146 20.9998 9.47931C20.9998 9.85716 20.9254 10.2313 20.7808 10.5804C20.6362 10.9295 20.4242 11.2466 20.157 11.5138L17.514 14.1568C17.2468 14.424 16.9297 14.636 16.5806 14.7806C16.2315 14.9252 15.8573 14.9996 15.4795 14.9996C15.1017 14.9996 14.7275 14.9252 14.3784 14.7806C14.0293 14.636 13.7122 14.424 13.445 14.1568L13.144 13.8558L6.586 20.4138C6.25372 20.746 5.81507 20.9507 5.347 20.9918L5.172 20.9998H4C3.75507 20.9998 3.51866 20.9099 3.33563 20.7471C3.15259 20.5843 3.03566 20.3601 3.007 20.1168L3 19.9998V18.8278C3.00011 18.3583 3.16543 17.9037 3.467 17.5438L3.586 17.4138L4 16.9998H6V14.9998H8V12.9998L10.144 10.8558L9.843 10.5548C9.5758 10.2876 9.36384 9.97047 9.21923 9.62139C9.07462 9.27231 9.00019 8.89816 9.00019 8.52031C9.00019 8.14246 9.07462 7.76831 9.21923 7.41923C9.36384 7.07014 9.5758 6.75297 9.843 6.48581L12.486 3.84281C12.7532 3.57561 13.0703 3.36365 13.4194 3.21904C13.7685 3.07443 14.1427 3 14.5205 3C14.8983 3 15.2725 3.07443 15.6216 3.21904C15.9707 3.36365 16.2878 3.57561 16.555 3.84281Z"  stroke-width="1.5" stroke-linecap="round" stroke-linejoin="round"/>
</symbol>

<symbol id="Name=List" width="24" height="24" viewBox="0 0 24 24" fill="none">
<path d="M9 6H20M9 12H20M9 18H20M5 6V6.01M5 12V12.01M5 18V18.01"  stroke-width="1.5" stroke-linecap="round" stroke-linejoin="round"/>
</symbol>

<symbol id="Name=Loader" width="24" height="24" viewBox="0 0 24 24" fill="none">
<path d="M12 3C10.22 3 8.47991 3.52784 6.99987 4.51677C5.51983 5.50571 4.36628 6.91131 3.68509 8.55585C3.0039 10.2004 2.82567 12.01 3.17294 13.7558C3.5202 15.5016 4.37737 17.1053 5.63604 18.364C6.89472 19.6226 8.49836 20.4798 10.2442 20.8271C11.99 21.1743 13.7996 20.9961 15.4442 20.3149C17.0887 19.6337 18.4943 18.4802 19.4832 17.0001C20.4722 15.5201 21 13.78 21 12"  stroke-width="1.5" stroke-linecap="round" stroke-linejoin="round"/>
</symbol>

<symbol id="Name=Log Out" width="24" height="24" viewBox="0 0 24 24" fill="none">
<path d="M14 8V6C14 5.46957 13.7893 4.96086 13.4142 4.58579C13.0391 4.21071 12.5304 4 12 4H5C4.46957 4 3.96086 4.21071 3.58579 4.58579C3.21071 4.96086 3 5.46957 3 6V18C3 18.5304 3.21071 19.0391 3.58579 19.4142C3.96086 19.7893 4.46957 20 5 20H12C12.5304 20 13.0391 19.7893 13.4142 19.4142C13.7893 19.0391 14 18.5304 14 18V16M9 12H21M21 12L18 9M21 12L18 15"  stroke-width="1.5" stroke-linecap="round" stroke-linejoin="round"/>
</symbol>

<symbol id="Name=Map-pin" width="24" height="24" viewBox="0 0 24 24" fill="none">
<path d="M9 11C9 11.7956 9.31607 12.5587 9.87868 13.1213C10.4413 13.6839 11.2044 14 12 14C12.7956 14 13.5587 13.6839 14.1213 13.1213C14.6839 12.5587 15 11.7956 15 11C15 10.2044 14.6839 9.44129 14.1213 8.87868C13.5587 8.31607 12.7956 8 12 8C11.2044 8 10.4413 8.31607 9.87868 8.87868C9.31607 9.44129 9 10.2044 9 11Z"  stroke-width="1.5" stroke-linecap="round" stroke-linejoin="round"/>
<path d="M17.657 16.6572L13.414 20.9002C13.039 21.2748 12.5306 21.4853 12.0005 21.4853C11.4704 21.4853 10.962 21.2748 10.587 20.9002L6.343 16.6572C5.22422 15.5384 4.46234 14.1129 4.15369 12.5611C3.84504 11.0092 4.00349 9.40071 4.60901 7.93893C5.21452 6.47714 6.2399 5.22774 7.55548 4.3487C8.87107 3.46967 10.4178 3.00049 12 3.00049C13.5822 3.00049 15.1289 3.46967 16.4445 4.3487C17.7601 5.22774 18.7855 6.47714 19.391 7.93893C19.9965 9.40071 20.155 11.0092 19.8463 12.5611C19.5377 14.1129 18.7758 15.5384 17.657 16.6572Z"  stroke-width="1.5" stroke-linecap="round" stroke-linejoin="round"/>
</symbol>

<symbol id="Name=Map-pins" width="24" height="24" viewBox="0 0 24 24" fill="none">
<path d="M8 7V7.01M16 15V15.01M10.828 9.82788C11.3875 9.26852 11.7686 8.55579 11.9231 7.77983C12.0775 7.00387 11.9984 6.19954 11.6956 5.46857C11.3929 4.73759 10.8802 4.11281 10.2224 3.67323C9.56459 3.23365 8.79118 2.99902 8 2.99902C7.20883 2.99902 6.43542 3.23365 5.7776 3.67323C5.11977 4.11281 4.60708 4.73759 4.30437 5.46857C4.00165 6.19954 3.92251 7.00387 4.07695 7.77983C4.23139 8.55579 4.61247 9.26852 5.172 9.82788L8 12.6569L10.828 9.82788ZM18.828 17.8279C19.3875 17.2685 19.7686 16.5558 19.9231 15.7798C20.0775 15.0039 19.9983 14.1995 19.6956 13.4686C19.3929 12.7376 18.8802 12.1128 18.2224 11.6732C17.5646 11.2337 16.7912 10.999 16 10.999C15.2088 10.999 14.4354 11.2337 13.7776 11.6732C13.1198 12.1128 12.6071 12.7376 12.3044 13.4686C12.0017 14.1995 11.9225 15.0039 12.0769 15.7798C12.2314 16.5558 12.6125 17.2685 13.172 17.8279L16 20.6569L18.828 17.8279Z"  stroke-width="1.5" stroke-linecap="round" stroke-linejoin="round"/>
</symbol>

<symbol id="Name=Menu-2" width="24" height="24" viewBox="0 0 24 24" fill="none">
<path d="M4 6H20M4 12H20M4 18H20"  stroke-width="1.5" stroke-linecap="round" stroke-linejoin="round"/>
</symbol>

<symbol id="Name=Movie" width="24" height="24" viewBox="0 0 24 24" fill="none">
<path d="M8 4V20M16 4V20M4 8H8M4 16H8M4 12H20M16 8H20M16 16H20M4 6C4 5.46957 4.21071 4.96086 4.58579 4.58579C4.96086 4.21071 5.46957 4 6 4H18C18.5304 4 19.0391 4.21071 19.4142 4.58579C19.7893 4.96086 20 5.46957 20 6V18C20 18.5304 19.7893 19.0391 19.4142 19.4142C19.0391 19.7893 18.5304 20 18 20H6C5.46957 20 4.96086 19.7893 4.58579 19.4142C4.21071 19.0391 4 18.5304 4 18V6Z"  stroke-width="1.5" stroke-linecap="round" stroke-linejoin="round"/>
</symbol>

<symbol id="Name=Phone" width="24" height="24" viewBox="0 0 24 24" fill="none">
<path d="M5 4H9L11 9L8.5 10.5C9.57096 12.6715 11.3285 14.429 13.5 15.5L15 13L20 15V19C20 19.5304 19.7893 20.0391 19.4142 20.4142C19.0391 20.7893 18.5304 21 18 21C14.0993 20.763 10.4202 19.1065 7.65683 16.3432C4.8935 13.5798 3.23705 9.90074 3 6C3 5.46957 3.21071 4.96086 3.58579 4.58579C3.96086 4.21071 4.46957 4 5 4Z"  stroke-width="1.5" stroke-linecap="round" stroke-linejoin="round"/>
</symbol>

<symbol id="Name=Photo" width="24" height="24" viewBox="0 0 24 24" fill="none">
<path d="M5 7H6C6.53043 7 7.03914 6.78929 7.41421 6.41421C7.78929 6.03914 8 5.53043 8 5C8 4.73478 8.10536 4.48043 8.29289 4.29289C8.48043 4.10536 8.73478 4 9 4H15C15.2652 4 15.5196 4.10536 15.7071 4.29289C15.8946 4.48043 16 4.73478 16 5C16 5.53043 16.2107 6.03914 16.5858 6.41421C16.9609 6.78929 17.4696 7 18 7H19C19.5304 7 20.0391 7.21071 20.4142 7.58579C20.7893 7.96086 21 8.46957 21 9V18C21 18.5304 20.7893 19.0391 20.4142 19.4142C20.0391 19.7893 19.5304 20 19 20H5C4.46957 20 3.96086 19.7893 3.58579 19.4142C3.21071 19.0391 3 18.5304 3 18V9C3 8.46957 3.21071 7.96086 3.58579 7.58579C3.96086 7.21071 4.46957 7 5 7Z"  stroke-width="1.5" stroke-linecap="round" stroke-linejoin="round"/>
<path d="M9 13C9 13.7956 9.31607 14.5587 9.87868 15.1213C10.4413 15.6839 11.2044 16 12 16C12.7956 16 13.5587 15.6839 14.1213 15.1213C14.6839 14.5587 15 13.7956 15 13C15 12.2044 14.6839 11.4413 14.1213 10.8787C13.5587 10.3161 12.7956 10 12 10C11.2044 10 10.4413 10.3161 9.87868 10.8787C9.31607 11.4413 9 12.2044 9 13Z"  stroke-width="1.5" stroke-linecap="round" stroke-linejoin="round"/>
</symbol>

<symbol id="Name=Play" width="24" height="24" viewBox="0 0 24 24" fill="none">
<g clip-path="url(#clip0_4520_48299)">
<path d="M16.5 19.7943C18.5672 18.6008 20.0756 16.635 20.6934 14.3294C21.3112 12.0238 20.9877 9.5672 19.7943 7.50004C18.6008 5.43288 16.635 3.92449 14.3294 3.30671C12.0238 2.68892 9.5672 3.01234 7.50004 4.20581C5.43288 5.39928 3.92449 7.36505 3.30671 9.67067C2.68892 11.9763 3.01234 14.4329 4.20581 16.5C5.39928 18.5672 7.36505 20.0756 9.67067 20.6934C11.9763 21.3112 14.4329 20.9877 16.5 19.7943Z"  stroke-width="1.5" stroke-linecap="round" stroke-linejoin="round"/>
<path d="M9.60292 16.8481L17.3972 12.3481L9.50004 7.66991L9.60292 16.8481Z"  stroke-width="1.5" stroke-linecap="round" stroke-linejoin="round"/>
</g>
<defs>
<clipPath>
<rect width="24" height="24" fill="white"/>
</clipPath>
</defs>
</symbol>

<symbol id="Name=Plus" width="24" height="24" viewBox="0 0 24 24" fill="none">
<path d="M12 5V19M5 12H19"  stroke-width="1.5" stroke-linecap="round" stroke-linejoin="round"/>
</symbol>

<symbol id="Name=Question" width="24" height="24" viewBox="0 0 24 24" fill="none">
<path d="M12 15.9995V16.0095M12 12.9995C12.4498 13.0009 12.8868 12.8506 13.2407 12.573C13.5945 12.2953 13.8444 11.9065 13.95 11.4693C14.0557 11.0322 14.0109 10.5722 13.8229 10.1636C13.6349 9.755 13.3147 9.4217 12.914 9.21752C12.5162 9.01373 12.0611 8.95054 11.6228 9.03824C11.1845 9.12593 10.7888 9.35935 10.5 9.70052M19.875 6.26959C20.575 6.66759 21.005 7.41259 21 8.21759V15.5016C21 16.3106 20.557 17.0566 19.842 17.4496L13.092 21.7196C12.7574 21.9033 12.3818 21.9996 12 21.9996C11.6182 21.9996 11.2426 21.9033 10.908 21.7196L4.158 17.4496C3.80817 17.2584 3.51612 16.9768 3.31241 16.6341C3.1087 16.2914 3.0008 15.9003 3 15.5016V8.21659C3 7.40759 3.443 6.66259 4.158 6.26959L10.908 2.28959C11.2525 2.09963 11.6396 2 12.033 2C12.4264 2 12.8135 2.09963 13.158 2.28959L19.908 6.26959H19.875Z"  stroke-width="1.5" stroke-linecap="round" stroke-linejoin="round"/>
</symbol>

<symbol id="Name=Search" width="24" height="24" viewBox="0 0 24 24" fill="none">
<path d="M21 21L15 15M3 10C3 10.9193 3.18106 11.8295 3.53284 12.6788C3.88463 13.5281 4.40024 14.2997 5.05025 14.9497C5.70026 15.5998 6.47194 16.1154 7.32122 16.4672C8.1705 16.8189 9.08075 17 10 17C10.9193 17 11.8295 16.8189 12.6788 16.4672C13.5281 16.1154 14.2997 15.5998 14.9497 14.9497C15.5998 14.2997 16.1154 13.5281 16.4672 12.6788C16.8189 11.8295 17 10.9193 17 10C17 9.08075 16.8189 8.1705 16.4672 7.32122C16.1154 6.47194 15.5998 5.70026 14.9497 5.05025C14.2997 4.40024 13.5281 3.88463 12.6788 3.53284C11.8295 3.18106 10.9193 3 10 3C9.08075 3 8.1705 3.18106 7.32122 3.53284C6.47194 3.88463 5.70026 4.40024 5.05025 5.05025C4.40024 5.70026 3.88463 6.47194 3.53284 7.32122C3.18106 8.1705 3 9.08075 3 10Z"  stroke-width="1.5" stroke-linecap="round" stroke-linejoin="round"/>
</symbol>

<symbol id="Name=Selections" width="24" height="24" viewBox="0 0 24 24" fill="none">
<path d="M6 12C5.46957 12 4.96086 11.7893 4.58579 11.4142C4.21071 11.0391 4 10.5304 4 10C4 9.46957 4.21071 8.96086 4.58579 8.58579C4.96086 8.21071 5.46957 8 6 8M6 12C6.53043 12 7.03914 11.7893 7.41421 11.4142C7.78929 11.0391 8 10.5304 8 10C8 9.46957 7.78929 8.96086 7.41421 8.58579C7.03914 8.21071 6.53043 8 6 8M6 12V20M6 8V4M12 4V12.5M18 9C17.4696 9 16.9609 8.78929 16.5858 8.41421C16.2107 8.03914 16 7.53043 16 7C16 6.46957 16.2107 5.96086 16.5858 5.58579C16.9609 5.21071 17.4696 5 18 5M18 9C18.5304 9 19.0391 8.78929 19.4142 8.41421C19.7893 8.03914 20 7.53043 20 7C20 6.46957 19.7893 5.96086 19.4142 5.58579C19.0391 5.21071 18.5304 5 18 5M18 9V11.5M18 5V4M18.0001 22.0001L21.3501 18.7161C21.5556 18.5168 21.719 18.2783 21.8307 18.0147C21.9425 17.7512 22.0003 17.4679 22.0007 17.1817C22.0012 16.8954 21.9443 16.612 21.8334 16.3481C21.7225 16.0841 21.5599 15.8451 21.3551 15.6451C20.9373 15.2364 20.3763 15.0071 19.7918 15.006C19.2074 15.0049 18.6455 15.2321 18.2261 15.6391L18.0021 15.8591L17.7791 15.6391C17.3613 15.2307 16.8006 15.0016 16.2163 15.0005C15.6321 14.9994 15.0705 15.2264 14.6511 15.6331C14.4456 15.8324 14.2821 16.0708 14.1703 16.3343C14.0585 16.5978 14.0006 16.8811 14 17.1673C13.9994 17.4536 14.0562 17.7371 14.167 18.001C14.2778 18.265 14.4404 18.504 14.6451 18.7041L18.0001 22.0001Z"  stroke-width="1.5" stroke-linecap="round" stroke-linejoin="round"/>
</symbol>

<symbol id="Name=Sertificate" width="24" height="24" viewBox="0 0 24 24" fill="none">
<path d="M13 17.5V22L15 20.5L17 22V17.5M10 19H5C4.46957 19 3.96086 18.7893 3.58579 18.4142C3.21071 18.0391 3 17.5304 3 17V7C3 5.9 3.9 5 5 5H19C19.5304 5 20.0391 5.21071 20.4142 5.58579C20.7893 5.96086 21 6.46957 21 7V17C20.9996 17.3507 20.9071 17.6952 20.7315 17.9988C20.556 18.3025 20.3037 18.5546 20 18.73M6 9H18M6 12H9M6 15H8M12 15C12 15.7956 12.3161 16.5587 12.8787 17.1213C13.4413 17.6839 14.2044 18 15 18C15.7956 18 16.5587 17.6839 17.1213 17.1213C17.6839 16.5587 18 15.7956 18 15C18 14.2044 17.6839 13.4413 17.1213 12.8787C16.5587 12.3161 15.7956 12 15 12C14.2044 12 13.4413 12.3161 12.8787 12.8787C12.3161 13.4413 12 14.2044 12 15Z"  stroke-width="1.5" stroke-linecap="round" stroke-linejoin="round"/>
</symbol>

<symbol id="Name=Share" width="24" height="24" viewBox="0 0 24 24" fill="none">
<path d="M8.7002 10.7L15.3002 7.30005M8.7002 13.3L15.3002 16.7M3 12C3 12.7956 3.31607 13.5587 3.87868 14.1213C4.44129 14.6839 5.20435 15 6 15C6.79565 15 7.55871 14.6839 8.12132 14.1213C8.68393 13.5587 9 12.7956 9 12C9 11.2044 8.68393 10.4413 8.12132 9.87868C7.55871 9.31607 6.79565 9 6 9C5.20435 9 4.44129 9.31607 3.87868 9.87868C3.31607 10.4413 3 11.2044 3 12ZM15 6C15 6.79565 15.3161 7.55871 15.8787 8.12132C16.4413 8.68393 17.2044 9 18 9C18.7956 9 19.5587 8.68393 20.1213 8.12132C20.6839 7.55871 21 6.79565 21 6C21 5.20435 20.6839 4.44129 20.1213 3.87868C19.5587 3.31607 18.7956 3 18 3C17.2044 3 16.4413 3.31607 15.8787 3.87868C15.3161 4.44129 15 5.20435 15 6ZM15 18C15 18.7956 15.3161 19.5587 15.8787 20.1213C16.4413 20.6839 17.2044 21 18 21C18.7956 21 19.5587 20.6839 20.1213 20.1213C20.6839 19.5587 21 18.7956 21 18C21 17.2044 20.6839 16.4413 20.1213 15.8787C19.5587 15.3161 18.7956 15 18 15C17.2044 15 16.4413 15.3161 15.8787 15.8787C15.3161 16.4413 15 17.2044 15 18Z"  stroke-width="1.5" stroke-linecap="round" stroke-linejoin="round"/>
</symbol>

<symbol id="Name=Star" width="24" height="24" viewBox="0 0 24 24" fill="none">
<path d="M12.0001 17.75L5.82808 20.995L7.00708 14.122L2.00708 9.25495L8.90708 8.25495L11.9931 2.00195L15.0791 8.25495L21.9791 9.25495L16.9791 14.122L18.1581 20.995L12.0001 17.75Z"  stroke-width="1.5" stroke-linecap="round" stroke-linejoin="round"/>
</symbol>

<symbol id="Name=Table Line" width="24" height="24" viewBox="0 0 24 24" fill="none">
<path d="M4 3H20M4 9H20M4 15H20M4 21H20"  stroke-width="1.5" stroke-linecap="round" stroke-linejoin="round"/>
</symbol>

<symbol id="Name=Thumb-down" width="24" height="24" viewBox="0 0 24 24" fill="none">
<path d="M7 12.9999V4.99993C7 4.73472 6.89464 4.48036 6.70711 4.29283C6.51957 4.10529 6.26522 3.99993 6 3.99993H4C3.73478 3.99993 3.48043 4.10529 3.29289 4.29283C3.10536 4.48036 3 4.73472 3 4.99993V11.9999C3 12.2651 3.10536 12.5195 3.29289 12.707C3.48043 12.8946 3.73478 12.9999 4 12.9999H7ZM7 12.9999C8.06087 12.9999 9.07828 13.4214 9.82843 14.1715C10.5786 14.9217 11 15.9391 11 16.9999V17.9999C11 18.5304 11.2107 19.0391 11.5858 19.4141C11.9609 19.7892 12.4696 19.9999 13 19.9999C13.5304 19.9999 14.0391 19.7892 14.4142 19.4141C14.7893 19.0391 15 18.5304 15 17.9999V12.9999H18C18.5304 12.9999 19.0391 12.7892 19.4142 12.4141C19.7893 12.0391 20 11.5304 20 10.9999L19 5.99993C18.8562 5.38646 18.5834 4.85969 18.2227 4.49897C17.8619 4.13825 17.4328 3.96311 17 3.99993H10C9.20435 3.99993 8.44129 4.316 7.87868 4.87861C7.31607 5.44122 7 6.20428 7 6.99993"  stroke-width="1.5" stroke-linecap="round" stroke-linejoin="round"/>
</symbol>

<symbol id="Name=Thumb-up" width="24" height="24" viewBox="0 0 24 24" fill="none">
<path d="M7 11V19C7 19.2652 6.89464 19.5196 6.70711 19.7071C6.51957 19.8946 6.26522 20 6 20H4C3.73478 20 3.48043 19.8946 3.29289 19.7071C3.10536 19.5196 3 19.2652 3 19V12C3 11.7348 3.10536 11.4804 3.29289 11.2929C3.48043 11.1054 3.73478 11 4 11H7ZM7 11C8.06087 11 9.07828 10.5786 9.82843 9.82843C10.5786 9.07828 11 8.06087 11 7V6C11 5.46957 11.2107 4.96086 11.5858 4.58579C11.9609 4.21071 12.4696 4 13 4C13.5304 4 14.0391 4.21071 14.4142 4.58579C14.7893 4.96086 15 5.46957 15 6V11H18C18.5304 11 19.0391 11.2107 19.4142 11.5858C19.7893 11.9609 20 12.4696 20 13L19 18C18.8562 18.6135 18.5834 19.1402 18.2227 19.501C17.8619 19.8617 17.4328 20.0368 17 20H10C9.20435 20 8.44129 19.6839 7.87868 19.1213C7.31607 18.5587 7 17.7956 7 17"  stroke-width="1.5" stroke-linecap="round" stroke-linejoin="round"/>
</symbol>

<symbol id="Name=Trash" width="24" height="24" viewBox="0 0 24 24" fill="none">
<path d="M4 7H20M10 11V17M14 11V17M5 7L6 19C6 19.5304 6.21071 20.0391 6.58579 20.4142C6.96086 20.7893 7.46957 21 8 21H16C16.5304 21 17.0391 20.7893 17.4142 20.4142C17.7893 20.0391 18 19.5304 18 19L19 7M9 7V4C9 3.73478 9.10536 3.48043 9.29289 3.29289C9.48043 3.10536 9.73478 3 10 3H14C14.2652 3 14.5196 3.10536 14.7071 3.29289C14.8946 3.48043 15 3.73478 15 4V7"  stroke-width="1.5" stroke-linecap="round" stroke-linejoin="round"/>
</symbol>

<symbol id="Name=TV" width="24" height="24" viewBox="0 0 24 24" fill="none">
<path d="M16 3L12 7L8 3M3 9C3 8.46957 3.21071 7.96086 3.58579 7.58579C3.96086 7.21071 4.46957 7 5 7H19C19.5304 7 20.0391 7.21071 20.4142 7.58579C20.7893 7.96086 21 8.46957 21 9V18C21 18.5304 20.7893 19.0391 20.4142 19.4142C20.0391 19.7893 19.5304 20 19 20H5C4.46957 20 3.96086 19.7893 3.58579 19.4142C3.21071 19.0391 3 18.5304 3 18V9Z"  stroke-width="1.5" stroke-linecap="round" stroke-linejoin="round"/>
</symbol>

<symbol id="Name=Upload" width="24" height="24" viewBox="0 0 24 24" fill="none">
<path d="M4 17V19C4 19.5304 4.21071 20.0391 4.58579 20.4142C4.96086 20.7893 5.46957 21 6 21H18C18.5304 21 19.0391 20.7893 19.4142 20.4142C19.7893 20.0391 20 19.5304 20 19V17M7 9L12 4M12 4L17 9M12 4V16"  stroke-width="1.5" stroke-linecap="round" stroke-linejoin="round"/>
</symbol>

<symbol id="Name=User" width="24" height="24" viewBox="0 0 24 24" fill="none">
<path d="M6 21V19C6 17.9391 6.42143 16.9217 7.17157 16.1716C7.92172 15.4214 8.93913 15 10 15H14C15.0609 15 16.0783 15.4214 16.8284 16.1716C17.5786 16.9217 18 17.9391 18 19V21M8 7C8 8.06087 8.42143 9.07828 9.17157 9.82843C9.92172 10.5786 10.9391 11 12 11C13.0609 11 14.0783 10.5786 14.8284 9.82843C15.5786 9.07828 16 8.06087 16 7C16 5.93913 15.5786 4.92172 14.8284 4.17157C14.0783 3.42143 13.0609 3 12 3C10.9391 3 9.92172 3.42143 9.17157 4.17157C8.42143 4.92172 8 5.93913 8 7Z"  stroke-width="1.5" stroke-linecap="round" stroke-linejoin="round"/>
</symbol>

<symbol id="Name=Users" width="24" height="24" viewBox="0 0 24 24" fill="none">
<path d="M3 21V19C3 17.9391 3.42143 16.9217 4.17157 16.1716C4.92172 15.4214 5.93913 15 7 15H11C12.0609 15 13.0783 15.4214 13.8284 16.1716C14.5786 16.9217 15 17.9391 15 19V21M16 3.13C16.8604 3.35031 17.623 3.85071 18.1676 4.55232C18.7122 5.25392 19.0078 6.11683 19.0078 7.005C19.0078 7.89318 18.7122 8.75608 18.1676 9.45769C17.623 10.1593 16.8604 10.6597 16 10.88M21 21V19C20.9949 18.1172 20.6979 17.2608 20.1553 16.5644C19.6126 15.868 18.8548 15.3707 18 15.15M5 7C5 8.06087 5.42143 9.07828 6.17157 9.82843C6.92172 10.5786 7.93913 11 9 11C10.0609 11 11.0783 10.5786 11.8284 9.82843C12.5786 9.07828 13 8.06087 13 7C13 5.93913 12.5786 4.92172 11.8284 4.17157C11.0783 3.42143 10.0609 3 9 3C7.93913 3 6.92172 3.42143 6.17157 4.17157C5.42143 4.92172 5 5.93913 5 7Z"  stroke-width="1.5" stroke-linecap="round" stroke-linejoin="round"/>
</symbol>

<symbol id="Name=Video" width="24" height="24" viewBox="0 0 24 24" fill="none">
<path d="M2 8C2 6.93913 2.42143 5.92172 3.17157 5.17157C3.92172 4.42143 4.93913 4 6 4H18C19.0609 4 20.0783 4.42143 20.8284 5.17157C21.5786 5.92172 22 6.93913 22 8V16C22 17.0609 21.5786 18.0783 20.8284 18.8284C20.0783 19.5786 19.0609 20 18 20H6C4.93913 20 3.92172 19.5786 3.17157 18.8284C2.42143 18.0783 2 17.0609 2 16V8Z"  stroke-width="1.5" stroke-linecap="round" stroke-linejoin="round"/>
<path d="M10 9L15 12L10 15V9Z"  stroke-width="1.5" stroke-linecap="round" stroke-linejoin="round"/>
</symbol>

<symbol id="Name=Volume-off" width="24" height="24" viewBox="0 0 24 24" fill="none">
<path d="M16 10L20 14M20 10L16 14M6 15H4C3.73478 15 3.48043 14.8946 3.29289 14.7071C3.10536 14.5195 3 14.2652 3 14V9.99997C3 9.73476 3.10536 9.4804 3.29289 9.29287C3.48043 9.10533 3.73478 8.99997 4 8.99997H6L9.5 4.49997C9.5874 4.3302 9.73265 4.1973 9.90949 4.12526C10.0863 4.05323 10.2831 4.04683 10.4643 4.10722C10.6454 4.1676 10.799 4.29078 10.8972 4.45451C10.9955 4.61824 11.0319 4.81171 11 4.99997V19C11.0319 19.1882 10.9955 19.3817 10.8972 19.5454C10.799 19.7092 10.6454 19.8323 10.4643 19.8927C10.2831 19.9531 10.0863 19.9467 9.90949 19.8747C9.73265 19.8027 9.5874 19.6697 9.5 19.5L6 15Z"  stroke-width="1.5" stroke-linecap="round" stroke-linejoin="round"/>
</symbol>

<symbol id="Name=Volume-on" width="24" height="24" viewBox="0 0 24 24" fill="none">
<path d="M15 8C15.621 8.46574 16.125 9.06966 16.4721 9.76393C16.8193 10.4582 17 11.2238 17 12C17 12.7762 16.8193 13.5418 16.4721 14.2361C16.125 14.9303 15.621 15.5343 15 16M6 15H4C3.73478 15 3.48043 14.8946 3.29289 14.7071C3.10536 14.5195 3 14.2652 3 14V9.99997C3 9.73476 3.10536 9.4804 3.29289 9.29287C3.48043 9.10533 3.73478 8.99997 4 8.99997H6L9.5 4.49997C9.5874 4.3302 9.73265 4.1973 9.90949 4.12526C10.0863 4.05323 10.2831 4.04683 10.4643 4.10722C10.6454 4.1676 10.799 4.29078 10.8972 4.45451C10.9955 4.61824 11.0319 4.81171 11 4.99997V19C11.0319 19.1882 10.9955 19.3817 10.8972 19.5454C10.799 19.7092 10.6454 19.8323 10.4643 19.8927C10.2831 19.9531 10.0863 19.9467 9.90949 19.8747C9.73265 19.8027 9.5874 19.6697 9.5 19.5L6 15Z"  stroke-width="1.5" stroke-linecap="round" stroke-linejoin="round"/>
</symbol>

<symbol id="Name=Web" width="24" height="24" viewBox="0 0 24 24" fill="none">
<path d="M19.5001 7.00002C18.6763 5.767 17.5605 4.75666 16.2521 4.05882C14.9436 3.36098 13.483 2.99727 12.0001 3.00002C10.5198 2.99911 9.06209 3.36374 7.75652 4.06154C6.45095 4.75933 5.33787 5.76869 4.51611 7.00002M11.5001 3C10.7207 4.2486 10.1069 5.5932 9.67407 7M12.5 3C13.2801 4.2485 13.8945 5.5931 14.328 7M19.5001 17C18.6763 18.233 17.5605 19.2434 16.2521 19.9412C14.9436 20.639 13.483 21.0027 12.0001 21C10.5198 21.0009 9.06209 20.6363 7.75652 19.9385C6.45095 19.2407 5.33787 18.2313 4.51611 17M11.5001 21C10.7207 19.7514 10.1069 18.4068 9.67407 17M12.5 21C13.2801 19.7515 13.8945 18.4069 14.328 17M2 10L3 14L4.5 10L6 14L7 10M17 10L18 14L19.5 10L21 14L22 10M9.5 10L10.5 14L12 10L13.5 14L14.5 10"  stroke-width="1.5" stroke-linecap="round" stroke-linejoin="round"/>
</symbol>

<symbol id="Name=X Circle" width="24" height="24" viewBox="0 0 24 24" fill="none">
<path d="M10 10L14 14M14 10L10 14M3 12C3 13.1819 3.23279 14.3522 3.68508 15.4442C4.13738 16.5361 4.80031 17.5282 5.63604 18.364C6.47177 19.1997 7.46392 19.8626 8.55585 20.3149C9.64778 20.7672 10.8181 21 12 21C13.1819 21 14.3522 20.7672 15.4442 20.3149C16.5361 19.8626 17.5282 19.1997 18.364 18.364C19.1997 17.5282 19.8626 16.5361 20.3149 15.4442C20.7672 14.3522 21 13.1819 21 12C21 10.8181 20.7672 9.64778 20.3149 8.55585C19.8626 7.46392 19.1997 6.47177 18.364 5.63604C17.5282 4.80031 16.5361 4.13738 15.4442 3.68508C14.3522 3.23279 13.1819 3 12 3C10.8181 3 9.64778 3.23279 8.55585 3.68508C7.46392 4.13738 6.47177 4.80031 5.63604 5.63604C4.80031 6.47177 4.13738 7.46392 3.68508 8.55585C3.23279 9.64778 3 10.8181 3 12Z"  stroke-width="1.5" stroke-linecap="round" stroke-linejoin="round"/>
</symbol>

<symbol id="Name=X" width="24" height="24" viewBox="0 0 24 24" fill="none">
<path d="M18 6L6 18M6 6L18 18"  stroke-width="1.5" stroke-linecap="round" stroke-linejoin="round"/>
</symbol>

</svg>
