<svg width="0" height="0" class="hidden">
  <symbol fill="none" xmlns="http://www.w3.org/2000/svg" viewBox="0 0 24 24" id="Name=Telegram">
    <g clip-path="url(#clip0_2321_646)">
      <path fill-rule="evenodd" clip-rule="evenodd" d="M19.7769 4.43003C20.024 4.32602 20.2945 4.29015 20.5602 4.32614C20.8259 4.36214 21.0771 4.46869 21.2876 4.63471C21.4981 4.80073 21.6603 5.02014 21.7573 5.27011C21.8542 5.52008 21.8824 5.79147 21.8389 6.05603L19.5709 19.813C19.3509 21.14 17.8949 21.901 16.6779 21.24C15.6599 20.687 14.1479 19.835 12.7879 18.946C12.1079 18.501 10.0249 17.076 10.2809 16.062C10.5009 15.195 14.0009 11.937 16.0009 10C16.7859 9.23903 16.4279 8.80003 15.5009 9.50003C13.1989 11.238 9.5029 13.881 8.2809 14.625C7.2029 15.281 6.6409 15.393 5.9689 15.281C4.7429 15.077 3.6059 14.761 2.6779 14.376C1.4239 13.856 1.4849 12.132 2.6769 11.63L19.7769 4.43003Z" fill="black"></path>
    </g>
    <defs>
      <clipPath id="clip0_2321_646">
        <rect width="24" height="24" fill="white"></rect>
      </clipPath>
    </defs>
  </symbol>
  <symbol fill="none" xmlns="http://www.w3.org/2000/svg" viewBox="0 0 24 24" id="Name=Instagram">
    <path d="M12 8.75C11.138 8.75 10.3114 9.09241 9.7019 9.7019C9.09241 10.3114 8.75 11.138 8.75 12C8.75 12.862 9.09241 13.6886 9.7019 14.2981C10.3114 14.9076 11.138 15.25 12 15.25C12.862 15.25 13.6886 14.9076 14.2981 14.2981C14.9076 13.6886 15.25 12.862 15.25 12C15.25 11.138 14.9076 10.3114 14.2981 9.7019C13.6886 9.09241 12.862 8.75 12 8.75Z" fill="black"></path>
    <path fill-rule="evenodd" clip-rule="evenodd" d="M6.77007 3.082C10.2461 2.6967 13.754 2.6967 17.2301 3.082C19.1291 3.294 20.6601 4.789 20.8831 6.695C21.2953 10.2197 21.2953 13.7803 20.8831 17.305C20.6601 19.211 19.1291 20.706 17.2311 20.919C13.7547 21.3044 10.2464 21.3044 6.77007 20.919C4.87107 20.706 3.34007 19.211 3.11707 17.306C2.70479 13.781 2.70479 10.22 3.11707 6.695C3.34007 4.789 4.87107 3.294 6.77007 3.082ZM17.0001 6C16.7348 6 16.4805 6.10536 16.293 6.2929C16.1054 6.48043 16.0001 6.73479 16.0001 7C16.0001 7.26522 16.1054 7.51957 16.293 7.70711C16.4805 7.89465 16.7348 8 17.0001 8C17.2653 8 17.5196 7.89465 17.7072 7.70711C17.8947 7.51957 18.0001 7.26522 18.0001 7C18.0001 6.73479 17.8947 6.48043 17.7072 6.2929C17.5196 6.10536 17.2653 6 17.0001 6ZM7.25007 12C7.25007 10.7402 7.75051 9.53204 8.64131 8.64125C9.53211 7.75045 10.7403 7.25 12.0001 7.25C13.2598 7.25 14.468 7.75045 15.3588 8.64125C16.2496 9.53204 16.7501 10.7402 16.7501 12C16.7501 13.2598 16.2496 14.468 15.3588 15.3588C14.468 16.2496 13.2598 16.75 12.0001 16.75C10.7403 16.75 9.53211 16.2496 8.64131 15.3588C7.75051 14.468 7.25007 13.2598 7.25007 12Z" fill="black"></path>
  </symbol>
  <symbol fill="none" xmlns="http://www.w3.org/2000/svg" viewBox="0 0 24 24" id="Name=Viber">
    <path fill-rule="evenodd" clip-rule="evenodd" d="M16.6759 2.62798C13.5297 1.92471 10.2671 1.92471 7.12088 2.62798L6.78188 2.70298C5.8969 2.90085 5.08409 3.34017 4.43375 3.97215C3.78341 4.60413 3.321 5.40403 3.09788 6.28298C2.30038 9.42551 2.30038 12.7175 3.09788 15.86C3.31066 16.6982 3.74129 17.4653 4.34612 18.0835C4.95094 18.7017 5.70846 19.149 6.54188 19.38L7.00688 22.156C7.02173 22.2441 7.05993 22.3267 7.11752 22.3951C7.1751 22.4634 7.24997 22.5151 7.33431 22.5447C7.41865 22.5743 7.50939 22.5808 7.59708 22.5634C7.68476 22.5461 7.76619 22.5055 7.83288 22.446L10.5639 20.003C12.614 20.1281 14.6715 19.9641 16.6759 19.516L17.0159 19.441C17.9009 19.2431 18.7137 18.8038 19.364 18.1718C20.0144 17.5398 20.4768 16.7399 20.6999 15.861C21.4973 12.7184 21.4973 9.42652 20.6999 6.28398C20.4767 5.4049 20.0141 4.60492 19.3636 3.97292C18.7131 3.34093 17.9 2.90168 17.0149 2.70398L16.6759 2.62798ZM7.96488 6.20198C7.77903 6.17493 7.58952 6.21234 7.42788 6.30798H7.41388C7.03888 6.52798 6.70088 6.80498 6.41288 7.13098C6.17288 7.40798 6.04288 7.68798 6.00888 7.95798C5.98888 8.11798 6.00288 8.27998 6.04988 8.43298L6.06788 8.44298C6.33788 9.23598 6.68988 9.99898 7.11988 10.717C7.67433 11.7255 8.35664 12.6582 9.14988 13.492L9.17388 13.526L9.21188 13.554L9.23488 13.581L9.26288 13.605C10.0996 14.4006 11.0345 15.0862 12.0449 15.645C13.1999 16.274 13.9009 16.571 14.3219 16.695V16.701C14.4449 16.739 14.5569 16.756 14.6699 16.756C15.0284 16.7295 15.3678 16.5837 15.6339 16.342C15.9589 16.054 16.2339 15.715 16.4479 15.338V15.331C16.6489 14.951 16.5809 14.593 16.2909 14.35C15.7084 13.841 15.0785 13.389 14.4099 13C13.9619 12.757 13.5069 12.904 13.3229 13.15L12.9299 13.646C12.7279 13.892 12.3619 13.858 12.3619 13.858L12.3519 13.864C9.62088 13.167 8.89188 10.402 8.89188 10.402C8.89188 10.402 8.85788 10.026 9.11088 9.83398L9.60288 9.43798C9.83888 9.24598 10.0029 8.79198 9.74988 8.34398C9.36349 7.67475 8.91232 7.04506 8.40288 6.46398C8.29177 6.32723 8.13595 6.23409 7.96288 6.20098L7.96488 6.20198ZM12.5789 4.99998C12.4463 4.99998 12.3191 5.05266 12.2253 5.14643C12.1316 5.2402 12.0789 5.36738 12.0789 5.49998C12.0789 5.63259 12.1316 5.75977 12.2253 5.85354C12.3191 5.94731 12.4463 5.99998 12.5789 5.99998C13.8439 5.99998 14.8939 6.41298 15.7249 7.20498C16.1519 7.63798 16.4849 8.15098 16.7029 8.71298C16.9219 9.27598 17.0219 9.87698 16.9959 10.479C16.9931 10.5446 17.0033 10.6102 17.0259 10.6719C17.0485 10.7336 17.083 10.7903 17.1275 10.8387C17.2173 10.9364 17.3423 10.9944 17.4749 11C17.6075 11.0056 17.7369 10.9582 17.8346 10.8684C17.9323 10.7786 17.9903 10.6536 17.9959 10.521C18.0269 9.78047 17.904 9.04157 17.6349 8.35098C17.3646 7.65712 16.9548 7.0261 16.4309 6.49698L16.4209 6.48698C15.3899 5.50198 14.0849 4.99998 12.5789 4.99998ZM12.5449 6.64398C12.4123 6.64398 12.2851 6.69666 12.1913 6.79043C12.0976 6.8842 12.0449 7.01138 12.0449 7.14398C12.0449 7.27659 12.0976 7.40377 12.1913 7.49754C12.2851 7.59131 12.4123 7.64398 12.5449 7.64398H12.5619C13.4739 7.70898 14.1379 8.01298 14.6029 8.51198C15.0799 9.02598 15.3269 9.66498 15.3079 10.455C15.3048 10.5876 15.3546 10.716 15.4462 10.8119C15.5378 10.9078 15.6638 10.9634 15.7964 10.9665C15.929 10.9695 16.0574 10.9198 16.1533 10.8282C16.2492 10.7366 16.3048 10.6106 16.3079 10.478C16.3319 9.44098 15.9979 8.54598 15.3359 7.83198V7.82998C14.6589 7.10398 13.7299 6.71998 12.6119 6.64498L12.5949 6.64298L12.5449 6.64398ZM12.5259 8.31898C12.459 8.31308 12.3916 8.32072 12.3277 8.34145C12.2638 8.36217 12.2047 8.39556 12.154 8.43962C12.1033 8.48368 12.062 8.53751 12.0325 8.59788C12.0031 8.65826 11.9861 8.72395 11.9826 8.79103C11.9791 8.85812 11.9892 8.92521 12.0122 8.98832C12.0352 9.05143 12.0707 9.10926 12.1165 9.15835C12.1624 9.20744 12.2177 9.24679 12.2791 9.27404C12.3405 9.3013 12.4067 9.3159 12.4739 9.31698C12.8919 9.33898 13.1589 9.46498 13.3269 9.63398C13.4959 9.80398 13.6219 10.077 13.6449 10.504C13.6461 10.5711 13.6609 10.6372 13.6882 10.6985C13.7156 10.7598 13.755 10.815 13.8041 10.8607C13.8533 10.9064 13.9111 10.9418 13.9742 10.9647C14.0372 10.9876 14.1043 10.9975 14.1713 10.994C14.2383 10.9904 14.3039 10.9734 14.3642 10.944C14.4245 10.9145 14.4783 10.8732 14.5223 10.8225C14.5663 10.7719 14.5997 10.7129 14.6204 10.649C14.6411 10.5852 14.6487 10.5178 14.6429 10.451C14.6109 9.85098 14.4229 9.32098 14.0379 8.93098C13.6509 8.54098 13.1239 8.35098 12.5259 8.31898Z" fill="black"></path>
  </symbol>
  <symbol fill="none" xmlns="http://www.w3.org/2000/svg" viewBox="0 0 24 24" id="Name=Viber26">
    <path d="M19.29 10.107C19.314 7.215 16.851 4.564 13.8 4.197C13.734 4.18878 13.6684 4.17878 13.603 4.167C13.4496 4.13764 13.2941 4.12092 13.138 4.117C12.512 4.117 12.345 4.557 12.301 4.818C12.258 5.073 12.299 5.288 12.422 5.455C12.629 5.736 12.994 5.786 13.287 5.826C13.372 5.838 13.453 5.849 13.521 5.864C16.263 6.477 17.186 7.44 17.637 10.159C17.648 10.225 17.653 10.307 17.659 10.394C17.679 10.719 17.719 11.395 18.446 11.395C18.506 11.395 18.572 11.39 18.64 11.38C19.316 11.277 19.295 10.659 19.285 10.362C19.282 10.278 19.279 10.199 19.287 10.146C19.2886 10.1327 19.2892 10.1194 19.289 10.106L19.29 10.107Z" fill="black"></path>
    <path d="M12.96 3.136C13.042 3.142 13.118 3.148 13.182 3.157C17.685 3.85 19.756 5.983 20.329 10.521C20.339 10.598 20.341 10.692 20.342 10.791C20.348 11.146 20.36 11.884 21.152 11.899H21.176C21.425 11.899 21.622 11.824 21.764 11.676C22.01 11.419 21.994 11.036 21.979 10.728C21.976 10.652 21.973 10.581 21.973 10.518C22.031 5.878 18.013 1.669 13.377 1.513C13.357 1.513 13.339 1.513 13.321 1.516C13.3028 1.5183 13.2844 1.5193 13.266 1.519C13.219 1.519 13.163 1.515 13.102 1.511C13.03 1.506 12.947 1.5 12.862 1.5C12.124 1.5 11.984 2.025 11.966 2.338C11.925 3.061 12.624 3.112 12.96 3.136ZM20.112 16.386C20.0154 16.3126 19.9197 16.2379 19.825 16.162C19.333 15.766 18.81 15.402 18.305 15.049L17.99 14.829C17.342 14.374 16.76 14.153 16.21 14.153C15.468 14.153 14.822 14.563 14.288 15.37C14.052 15.728 13.765 15.902 13.412 15.902C13.1668 15.8934 12.9262 15.8331 12.706 15.725C10.616 14.777 9.12201 13.323 8.26801 11.404C7.85501 10.476 7.98901 9.87 8.71501 9.376C9.12801 9.096 9.89501 8.575 9.84201 7.576C9.78001 6.443 7.27901 3.032 6.22501 2.645C5.77443 2.48064 5.28052 2.47923 4.82901 2.641C3.61801 3.048 2.75001 3.764 2.31501 4.709C1.89501 5.623 1.91501 6.696 2.36901 7.812C3.68401 11.039 5.53201 13.853 7.86301 16.175C10.144 18.448 12.948 20.309 16.196 21.708C16.489 21.834 16.796 21.903 17.021 21.953C17.097 21.97 17.163 21.985 17.211 21.998C17.2374 22.0051 17.2647 22.0088 17.292 22.009H17.318C18.846 22.009 20.681 20.613 21.244 19.022C21.738 17.628 20.836 16.939 20.112 16.386ZM13.636 6.823C13.375 6.829 12.83 6.843 12.639 7.397C12.549 7.657 12.56 7.881 12.671 8.066C12.833 8.336 13.144 8.42 13.426 8.466C14.451 8.63 14.978 9.196 15.083 10.249C15.132 10.739 15.463 11.082 15.886 11.082C15.9181 11.082 15.9502 11.0799 15.982 11.076C16.492 11.016 16.739 10.641 16.717 9.962C16.725 9.254 16.355 8.45 15.724 7.81C15.092 7.168 14.33 6.806 13.636 6.823Z" fill="black"></path>
  </symbol>
  <symbol fill="none" xmlns="http://www.w3.org/2000/svg" viewBox="0 0 24 24" id="Name=Facebook">
    <path d="M22 12C22 6.48 17.52 2 12 2C6.48 2 2 6.48 2 12C2 16.84 5.44 20.87 10 21.8V15H8V12H10V9.5C10 7.57 11.57 6 13.5 6H16V9H14C13.45 9 13 9.45 13 10V12H16V15H13V21.95C18.05 21.45 22 17.19 22 12Z" fill="black"></path>
  </symbol>
  <symbol fill="none" xmlns="http://www.w3.org/2000/svg" viewBox="0 0 24 24" id="Name=WhatsApp">
    <path d="M12.001 2C17.524 2 22.001 6.477 22.001 12C22.001 17.523 17.524 22 12.001 22C10.2338 22.0029 8.49765 21.5352 6.97099 20.645L2.00499 22L3.35699 17.032C2.46608 15.5049 1.99804 13.768 2.00099 12C2.00099 6.477 6.47799 2 12.001 2ZM8.59299 7.3L8.39299 7.308C8.26351 7.31589 8.13697 7.3499 8.02099 7.408C7.91251 7.46943 7.81349 7.54622 7.72699 7.636C7.60699 7.749 7.53899 7.847 7.46599 7.942C7.09611 8.4229 6.89696 9.01331 6.89999 9.62C6.90199 10.11 7.02999 10.587 7.22999 11.033C7.63899 11.935 8.31199 12.89 9.19999 13.775C9.41399 13.988 9.62399 14.202 9.84999 14.401C10.9534 15.3725 12.2682 16.073 13.69 16.447L14.258 16.534C14.443 16.544 14.628 16.53 14.814 16.521C15.1052 16.506 15.3896 16.4271 15.647 16.29C15.7779 16.2225 15.9057 16.1491 16.03 16.07C16.03 16.07 16.073 16.042 16.155 15.98C16.29 15.88 16.373 15.809 16.485 15.692C16.568 15.606 16.64 15.505 16.695 15.39C16.773 15.227 16.851 14.916 16.883 14.657C16.907 14.459 16.9 14.351 16.897 14.284C16.893 14.177 16.804 14.066 16.707 14.019L16.125 13.758C16.125 13.758 15.255 13.379 14.723 13.137C14.6673 13.1127 14.6077 13.0988 14.547 13.096C14.4786 13.089 14.4094 13.0967 14.3442 13.1186C14.279 13.1405 14.2193 13.1761 14.169 13.223C14.164 13.221 14.097 13.278 13.374 14.154C13.3325 14.2098 13.2753 14.2519 13.2098 14.2751C13.1443 14.2982 13.0733 14.3013 13.006 14.284C12.9408 14.2665 12.877 14.2445 12.815 14.218C12.691 14.166 12.648 14.146 12.563 14.11C11.9891 13.8595 11.4577 13.5211 10.988 13.107C10.862 12.997 10.745 12.877 10.625 12.761C10.2316 12.3842 9.88871 11.958 9.60499 11.493L9.54599 11.398C9.50361 11.3342 9.46935 11.2653 9.44399 11.193C9.40599 11.046 9.50499 10.928 9.50499 10.928C9.50499 10.928 9.74799 10.662 9.86099 10.518C9.97099 10.378 10.064 10.242 10.124 10.145C10.242 9.955 10.279 9.76 10.217 9.609C9.93699 8.925 9.64699 8.244 9.34899 7.568C9.28999 7.434 9.11499 7.338 8.95599 7.319C8.90199 7.313 8.84799 7.307 8.79399 7.303C8.6597 7.29633 8.52513 7.29766 8.39099 7.307L8.59299 7.3Z" fill="black"></path>
  </symbol>
  <symbol fill="none" xmlns="http://www.w3.org/2000/svg" viewBox="0 0 24 24" id="Name=Telegram Fill">
    <path d="M12 2C6.48 2 2 6.48 2 12C2 17.52 6.48 22 12 22C17.52 22 22 17.52 22 12C22 6.48 17.52 2 12 2ZM16.64 8.8C16.49 10.38 15.84 14.22 15.51 15.99C15.37 16.74 15.09 16.99 14.83 17.02C14.25 17.07 13.81 16.64 13.25 16.27C12.37 15.69 11.87 15.33 11.02 14.77C10.03 14.12 10.67 13.76 11.24 13.18C11.39 13.03 13.95 10.7 14 10.49C14.0069 10.4582 14.006 10.4252 13.9973 10.3938C13.9886 10.3624 13.9724 10.3337 13.95 10.31C13.89 10.26 13.81 10.28 13.74 10.29C13.65 10.31 12.25 11.24 9.52 13.08C9.12 13.35 8.76 13.49 8.44 13.48C8.08 13.47 7.4 13.28 6.89 13.11C6.26 12.91 5.77 12.8 5.81 12.45C5.83 12.27 6.08 12.09 6.55 11.9C9.47 10.63 11.41 9.79 12.38 9.39C15.16 8.23 15.73 8.03 16.11 8.03C16.19 8.03 16.38 8.05 16.5 8.15C16.6 8.23 16.63 8.34 16.64 8.42C16.63 8.48 16.65 8.66 16.64 8.8Z" fill="black"></path>
  </symbol>
</svg>